<?xml version="1.0" encoding="UTF-8"?>
<svg version="1.1" xmlns="http://www.w3.org/2000/svg" width="225" height="225">
<path d="M0 0 C1.98913088 -0.00322495 3.97826154 -0.00658988 5.96739197 -0.01008606 C10.09602408 -0.01601296 14.22463543 -0.01793222 18.35327148 -0.01733398 C23.62162945 -0.01723166 28.8898548 -0.03098494 34.15818119 -0.04810619 C38.24957383 -0.05925192 42.34093436 -0.06125255 46.43234062 -0.06072426 C48.37504987 -0.06189658 50.31776016 -0.06627588 52.26045418 -0.07405663 C79.17281098 -0.17193622 79.17281098 -0.17193622 87.21484375 7.7734375 C93.41532329 14.525402 94.86327907 22.11042378 94.58984375 31.16796875 C92.97286584 38.12674867 89.96235506 43.38012597 83.84375 47.28125 C75.41208343 51.94665907 66.1134888 52.47217491 56.6640625 52.6171875 C55.62254532 52.63951447 54.58102814 52.66184143 53.50794983 52.68484497 C50.09784449 52.75319383 46.68777147 52.80593417 43.27734375 52.85546875 C42.10586792 52.87443207 40.93439209 52.89339539 39.72741699 52.91293335 C22.42270776 53.18420696 5.11871812 53.25361893 -12.18685913 53.02481079 C-14.48612652 52.99545707 -16.78547859 52.97207554 -19.08486938 52.95492554 C-22.30333645 52.92753295 -25.52030536 52.87393323 -28.73828125 52.8125 C-30.14278786 52.80586838 -30.14278786 52.80586838 -31.57566833 52.79910278 C-38.43374235 52.62231643 -46.09975998 51.5285842 -51.12310791 46.42903137 C-53.50001674 43.29214182 -55.27102815 39.93585399 -56.41015625 36.16796875 C-56.62929688 35.471875 -56.8484375 34.77578125 -57.07421875 34.05859375 C-58.96055828 26.92232132 -58.19579417 20.98545104 -55.41015625 14.16796875 C-52.3560922 9.17574866 -48.40109401 3.35679571 -42.52058315 1.60509968 C-39.04961197 0.88616037 -35.53016469 0.78840531 -31.99829102 0.6159668 C-31.16122651 0.57392718 -30.32416201 0.53188757 -29.46173191 0.48857403 C-19.64305392 0.03408667 -9.82737059 0.00381569 0 0 Z " fill="#4CE1CE" transform="translate(94.41015625,143.83203125)"/>
<path d="M0 0 C0.495 0.99 0.495 0.99 1 2 C1.9075 2.12375 2.815 2.2475 3.75 2.375 C7.50054554 3.09625876 9.21326711 4.4591553 12 7 C11.54300722 12.02692063 9.00758252 15.14896261 6 19 C5.42378906 18.84144531 4.84757812 18.68289062 4.25390625 18.51953125 C0.6531584 17.68954951 -2.29189557 17.705706 -6 18 C-9.52854389 20.95942391 -9.19621287 23.17727723 -10 28 C-5.38 28 -0.76 28 4 28 C4 33.61 4 39.22 4 45 C-0.62 45 -5.24 45 -10 45 C-9.99214478 47.35499634 -9.99214478 47.35499634 -9.98413086 49.75756836 C-9.96608857 55.5589949 -9.95457083 61.36041894 -9.94506836 67.16186523 C-9.94002637 69.67716895 -9.93319297 72.19246972 -9.92456055 74.70776367 C-9.91248906 78.31429775 -9.90677051 81.92079323 -9.90234375 85.52734375 C-9.89718246 86.65961899 -9.89202118 87.79189423 -9.88670349 88.95848083 C-9.88659019 90.51998619 -9.88659019 90.51998619 -9.88647461 92.11303711 C-9.884254 93.03459091 -9.88203339 93.95614471 -9.87974548 94.90562439 C-10 97 -10 97 -11 98 C-16.94 98 -22.88 98 -29 98 C-29 80.51 -29 63.02 -29 45 C-32.63 45 -36.26 45 -40 45 C-40 39.39 -40 33.78 -40 28 C-36.37 28 -32.74 28 -29 28 C-29.12375 26.0509375 -29.12375 26.0509375 -29.25 24.0625 C-29.25 17.50211029 -26.61993424 12.69989041 -23.3125 7.1875 C-16.71484278 0.9464729 -8.74128556 0.29581339 0 0 Z " fill="#2E292B" transform="translate(157,29)"/>
<path d="M0 0 C1.1484375 1.55859375 1.1484375 1.55859375 1.10546875 3.4453125 C-0.18971626 6.30529247 -1.96189029 8.14008786 -4.1640625 10.37109375 C-5.33388672 11.58732422 -5.33388672 11.58732422 -6.52734375 12.828125 C-8.8515625 14.55859375 -8.8515625 14.55859375 -11.14453125 14.3203125 C-11.70785156 14.06894531 -12.27117187 13.81757812 -12.8515625 13.55859375 C-12.8515625 12.89859375 -12.8515625 12.23859375 -12.8515625 11.55859375 C-19.3793205 8.76774069 -24.88244235 7.81631371 -31.8515625 9.55859375 C-36.30059356 11.82355502 -38.71025713 14.05058245 -40.8515625 18.55859375 C-42.77625597 25.07294089 -42.48863343 31.58249945 -39.828125 37.8359375 C-37.74050141 41.51850551 -34.81662851 43.09799406 -31.1015625 44.87109375 C-25.29848868 46.09866706 -20.63611898 45.58306136 -15.4765625 42.62109375 C-14.1771875 41.60015625 -14.1771875 41.60015625 -12.8515625 40.55859375 C-11.8615625 39.89859375 -10.8715625 39.23859375 -9.8515625 38.55859375 C-7.98153962 40.29397498 -6.13168158 42.04452725 -4.2890625 43.80859375 C-3.75603516 44.29972656 -3.22300781 44.79085937 -2.67382812 45.296875 C1.13067348 48.97865075 1.13067348 48.97865075 1.21484375 51.7265625 C-2.04347904 57.32419396 -8.95687671 60.48453764 -14.8515625 62.55859375 C-25.71989352 65.21529689 -37.04970986 63.8238809 -46.6484375 58.1015625 C-55.46503822 51.92681554 -60.51770471 44.3656392 -62.5390625 33.84375 C-64.00194876 23.14639421 -62.05239513 13.46438143 -55.8515625 4.55859375 C-49.97249299 -2.85705075 -42.88845011 -6.83978301 -33.7890625 -9.25390625 C-20.43559825 -10.10625503 -10.79356186 -8.40258296 0 0 Z " fill="#2E2A2B" transform="translate(103.8515625,63.44140625)"/>
<path d="M0 0 C1.98913088 -0.00322495 3.97826154 -0.00658988 5.96739197 -0.01008606 C10.09602408 -0.01601296 14.22463543 -0.01793222 18.35327148 -0.01733398 C23.62162945 -0.01723166 28.8898548 -0.03098494 34.15818119 -0.04810619 C38.24957383 -0.05925192 42.34093436 -0.06125255 46.43234062 -0.06072426 C48.37504987 -0.06189658 50.31776016 -0.06627588 52.26045418 -0.07405663 C77.8688644 -0.1671938 77.8688644 -0.1671938 85.58984375 6.16796875 C85.91984375 6.82796875 86.24984375 7.48796875 86.58984375 8.16796875 C84.93984375 8.16796875 83.28984375 8.16796875 81.58984375 8.16796875 C81.25984375 7.50796875 80.92984375 6.84796875 80.58984375 6.16796875 C76.37857754 4.40897362 72.83770327 3.93609743 68.30078125 4.0078125 C67.11097656 4.01876953 65.92117187 4.02972656 64.6953125 4.04101562 C63.46425781 4.06228516 62.23320312 4.08355469 60.96484375 4.10546875 C53.13027295 4.21834677 45.46614923 4.13733087 37.66455078 3.40161133 C31.7300425 2.95065655 25.78823574 3.02222362 19.83984375 3.04296875 C18.80500854 3.0447966 18.80500854 3.0447966 17.74926758 3.04666138 C5.19311919 3.07215157 -7.35784593 3.30654921 -19.91015625 3.60546875 C-20.77104858 3.62502625 -21.63194092 3.64458374 -22.5189209 3.66473389 C-24.99322601 3.72234885 -27.46730355 3.78587653 -29.94140625 3.8515625 C-31.02708893 3.87664635 -31.02708893 3.87664635 -32.13470459 3.90223694 C-37.27066982 4.04959241 -42.30892763 4.55101617 -47.41015625 5.16796875 C-44.18304827 1.45679457 -41.43381094 1.25174084 -36.61598206 0.85746765 C-35.07706303 0.7712204 -33.53779118 0.69113062 -31.99829102 0.6159668 C-31.16122651 0.57392718 -30.32416201 0.53188757 -29.46173191 0.48857403 C-19.64305392 0.03408667 -9.82737059 0.00381569 0 0 Z " fill="#87E4D9" transform="translate(94.41015625,143.83203125)"/>
<path d="M0 0 C0.99 0.495 0.99 0.495 2 1 C-11.45001954 10.75785731 -27.59574917 9.57324561 -43.5 9.75 C-45.8691407 9.7849067 -48.23828133 9.8198189 -50.60742188 9.85473633 C-67.90768116 10.0776666 -85.20122893 9.97595336 -102.5 9.6875 C-103.64750732 9.67062134 -104.79501465 9.65374268 -105.97729492 9.63635254 C-109.22478307 9.58521929 -112.47163728 9.52000778 -115.71875 9.44921875 C-117.15420166 9.42709572 -117.15420166 9.42709572 -118.61865234 9.40452576 C-123.45329033 9.27914898 -127.46127853 8.87123552 -132 7 C-127.7696339 5.81238764 -123.67287721 5.88260264 -119.31030273 5.91821289 C-117.99458282 5.92281273 -117.99458282 5.92281273 -116.65228271 5.92750549 C-114.74637886 5.93465784 -112.84048238 5.94404645 -110.93459892 5.95540047 C-107.9004098 5.97284706 -104.86627388 5.98311103 -101.83204651 5.99131775 C-93.20381626 6.01569798 -84.57565638 6.05085809 -75.94750977 6.09594727 C-70.6649581 6.12304545 -65.38244879 6.13988573 -60.09984016 6.15081596 C-58.10315464 6.15694819 -56.10647642 6.16685248 -54.10983086 6.18089485 C-43.42613439 6.25525348 -32.94730346 6.03408732 -22.33531094 4.70331669 C-17.51271799 4.10097269 -12.86221569 3.91307941 -8 4 C-7.67 3.01 -7.34 2.02 -7 1 C-5.68 1 -4.36 1 -3 1 C-2.01 0.67 -1.02 0.34 0 0 Z " fill="#97E8DE" transform="translate(181,187)"/>
<path d="M0 0 C0.66 0.33 1.32 0.66 2 1 C0.73168307 1.81642254 -0.53975931 2.62799105 -1.8125 3.4375 C-2.87404297 4.11619141 -2.87404297 4.11619141 -3.95703125 4.80859375 C-9.22969737 7.88347552 -15.12620621 7.42910068 -21.0625 7.6875 C-22.7340918 7.77741211 -22.7340918 7.77741211 -24.43945312 7.86914062 C-26.03370117 7.9397168 -26.03370117 7.9397168 -27.66015625 8.01171875 C-28.63605713 8.05772217 -29.61195801 8.10372559 -30.61743164 8.15112305 C-33 8 -33 8 -35 6 C-32.00051609 5.66134859 -29.00055074 5.32894927 -26 5 C-25.16082031 4.90460938 -24.32164062 4.80921875 -23.45703125 4.7109375 C-18.26859055 4.14785091 -13.21873039 3.90335684 -8 4 C-7.67 3.01 -7.34 2.02 -7 1 C-5.68 1 -4.36 1 -3 1 C-2.01 0.67 -1.02 0.34 0 0 Z " fill="#6BDCCB" transform="translate(181,187)"/>
<path d="M0 0 C6.2986875 -0.10164192 12.59716253 -0.17156661 18.89648438 -0.21972656 C21.03816634 -0.23980888 23.1797937 -0.26708037 25.32128906 -0.30175781 C28.40443415 -0.35042398 31.48685262 -0.3730029 34.5703125 -0.390625 C35.52366486 -0.41127014 36.47701721 -0.43191528 37.45925903 -0.45318604 C43.28828944 -0.45514176 46.55486051 0.12659711 51 4 C51.495 4.99 51.495 4.99 52 6 C50.35 6 48.7 6 47 6 C46.505 5.01 46.505 5.01 46 4 C41.78873379 2.24100487 38.24785952 1.76812868 33.7109375 1.83984375 C32.52113281 1.85080078 31.33132812 1.86175781 30.10546875 1.87304688 C28.87441406 1.89431641 27.64335937 1.91558594 26.375 1.9375 C17.51002649 2.06522374 8.82386786 1.91978811 0 1 C0 0.67 0 0.34 0 0 Z " fill="#5ADBC8" transform="translate(129,146)"/>
<path d="M0 0 C2.91517292 1.07401108 4.77810176 1.77810176 7 4 C6.8643018 8.74943717 4.1490813 12.59585293 1 16 C0.34 16 -0.32 16 -1 16 C-1.33 15.01 -1.66 14.02 -2 13 C-1.01 12.34 -0.02 11.68 1 11 C1.34062647 7.16795218 0.87790928 3.73111445 0 0 Z " fill="#383637" transform="translate(162,32)"/>
<path d="M0 0 C3.10083086 4.65124629 3.19336005 9.4859047 3 15 C2.02239544 18.53865313 0.68019653 21.74056296 -1 25 C-1.33 25 -1.66 25 -2 25 C-1.85970581 22.8537974 -1.71261836 20.70803782 -1.5625 18.5625 C-1.48128906 17.36753906 -1.40007812 16.17257813 -1.31640625 14.94140625 C-1 12 -1 12 0 11 C0.07226502 9.14712498 0.0838122 7.29166122 0.0625 5.4375 C0.05347656 4.42558594 0.04445312 3.41367188 0.03515625 2.37109375 C0.02355469 1.58863281 0.01195312 0.80617187 0 0 Z " fill="#97E9DF" transform="translate(186,160)"/>
<path d="M0 0 C0.66 0.33 1.32 0.66 2 1 C2.44921875 3.8359375 2.44921875 3.8359375 2.6875 7.375 C2.77386719 8.53773438 2.86023437 9.70046875 2.94921875 10.8984375 C3 14 3 14 2 17 C1.46585888 15.10787298 0.94821671 13.21108364 0.4375 11.3125 C0.14746094 10.25675781 -0.14257812 9.20101562 -0.44140625 8.11328125 C-1.00124767 4.99304618 -0.84690764 3.02306766 0 0 Z " fill="#A4ECE5" transform="translate(37,165)"/>
<path d="M0 0 C1.32 0 2.64 0 4 0 C2.7580393 3.43927579 1.44259716 6.25207819 -1 9 C-1.66 9 -2.32 9 -3 9 C-3.33 8.01 -3.66 7.02 -4 6 C-3.01 5.34 -2.02 4.68 -1 4 C-0.27617533 1.94074861 -0.27617533 1.94074861 0 0 Z " fill="#4C494A" transform="translate(164,39)"/>
<path d="M0 0 C-0.66 1.65 -1.32 3.3 -2 5 C-3.32 5 -4.64 5 -6 5 C-6.33 5.99 -6.66 6.98 -7 8 C-7.66 8 -8.32 8 -9 8 C-8.875 6.25 -8.875 6.25 -8 4 C-2.77777778 0 -2.77777778 0 0 0 Z " fill="#4E4C4C" transform="translate(142,32)"/>
<path d="M0 0 C0.66 0.33 1.32 0.66 2 1 C0.73760288 1.86658615 -0.53527501 2.71792059 -1.8125 3.5625 C-2.87404297 4.27599609 -2.87404297 4.27599609 -3.95703125 5.00390625 C-6 6 -6 6 -9 5 C-8.34 3.68 -7.68 2.36 -7 1 C-5.68 1 -4.36 1 -3 1 C-2.01 0.67 -1.02 0.34 0 0 Z " fill="#94EBE1" transform="translate(181,187)"/>
<path d="M0 0 C1.65 1.65 3.3 3.3 5 5 C2.03 5 -0.94 5 -4 5 C-2.68 3.35 -1.36 1.7 0 0 Z " fill="#605E5F" transform="translate(93,102)"/>
<path d="M0 0 C4.83256305 0.41421969 6.82679218 2.46413986 10 6 C8.35 6 6.7 6 5 6 C4.67 4.68 4.34 3.36 4 2 C2.68 2 1.36 2 0 2 C0 1.34 0 0.68 0 0 Z " fill="#92E7DC" transform="translate(171,146)"/>
<path d="M0 0 C0.93065133 2.60582371 1.14917407 3.64198224 0.0625 6.25 C-0.4634375 7.11625 -0.4634375 7.11625 -1 8 C-1.66 8 -2.32 8 -3 8 C-3.33 8.66 -3.66 9.32 -4 10 C-3.5205537 5.78087253 -2.83374881 3.20336822 0 0 Z " fill="#94EADF" transform="translate(42,154)"/>
<path d="" fill="#FFFFFF" transform="translate(0,0)"/>
<path d="" fill="#FFFFFF" transform="translate(0,0)"/>
<path d="" fill="#FFFFFF" transform="translate(0,0)"/>
<path d="" fill="#FFFFFF" transform="translate(0,0)"/>
<path d="" fill="#FFFFFF" transform="translate(0,0)"/>
<path d="" fill="#FFFFFF" transform="translate(0,0)"/>
<path d="" fill="#FFFFFF" transform="translate(0,0)"/>
<path d="" fill="#FFFFFF" transform="translate(0,0)"/>
<path d="" fill="#FFFFFF" transform="translate(0,0)"/>
<path d="" fill="#FFFFFF" transform="translate(0,0)"/>
<path d="" fill="#FFFFFF" transform="translate(0,0)"/>
<path d="" fill="#FFFFFF" transform="translate(0,0)"/>
<path d="" fill="#FFFFFF" transform="translate(0,0)"/>
<path d="" fill="#FFFFFF" transform="translate(0,0)"/>
<path d="" fill="#FFFFFF" transform="translate(0,0)"/>
<path d="" fill="#FFFFFF" transform="translate(0,0)"/>
<path d="" fill="#FFFFFF" transform="translate(0,0)"/>
<path d="" fill="#FFFFFF" transform="translate(0,0)"/>
<path d="" fill="#FFFFFF" transform="translate(0,0)"/>
<path d="" fill="#FFFFFF" transform="translate(0,0)"/>
<path d="" fill="#FFFFFF" transform="translate(0,0)"/>
<path d="" fill="#FFFFFF" transform="translate(0,0)"/>
<path d="" fill="#FFFFFF" transform="translate(0,0)"/>
<path d="" fill="#FFFFFF" transform="translate(0,0)"/>
<path d="" fill="#FFFFFF" transform="translate(0,0)"/>
<path d="" fill="#EAEAEA" transform="translate(0,0)"/>
<path d="" fill="#FFFFFF" transform="translate(0,0)"/>
<path d="" fill="#FFFFFF" transform="translate(0,0)"/>
<path d="" fill="#FFFFFF" transform="translate(0,0)"/>
<path d="" fill="#FFFFFF" transform="translate(0,0)"/>
<path d="" fill="#FFFFFF" transform="translate(0,0)"/>
<path d="" fill="#FFFFFF" transform="translate(0,0)"/>
<path d="" fill="#FFFFFF" transform="translate(0,0)"/>
<path d="" fill="#FFFFFF" transform="translate(0,0)"/>
<path d="" fill="#FFFFFF" transform="translate(0,0)"/>
<path d="" fill="#FFFFFF" transform="translate(0,0)"/>
<path d="" fill="#FFFFFF" transform="translate(0,0)"/>
<path d="" fill="#FFFFFF" transform="translate(0,0)"/>
<path d="" fill="#FFFFFF" transform="translate(0,0)"/>
<path d="" fill="#FFFFFF" transform="translate(0,0)"/>
<path d="" fill="#FFFFFF" transform="translate(0,0)"/>
<path d="" fill="#FFFFFF" transform="translate(0,0)"/>
<path d="" fill="#FFFFFF" transform="translate(0,0)"/>
<path d="" fill="#FFFFFF" transform="translate(0,0)"/>
<path d="" fill="#FFFFFF" transform="translate(0,0)"/>
<path d="" fill="#FFFFFF" transform="translate(0,0)"/>
<path d="" fill="#FFFFFF" transform="translate(0,0)"/>
<path d="" fill="#FFFFFF" transform="translate(0,0)"/>
<path d="" fill="#FFFFFF" transform="translate(0,0)"/>
<path d="" fill="#FFFFFF" transform="translate(0,0)"/>
<path d="" fill="#FFFFFF" transform="translate(0,0)"/>
<path d="" fill="#FFFFFF" transform="translate(0,0)"/>
<path d="" fill="#FFFFFF" transform="translate(0,0)"/>
<path d="" fill="#FFFFFF" transform="translate(0,0)"/>
<path d="" fill="#FFFFFF" transform="translate(0,0)"/>
<path d="" fill="#FFFFFE" transform="translate(0,0)"/>
<path d="" fill="#FFFFFF" transform="translate(0,0)"/>
<path d="" fill="#FFFFFF" transform="translate(0,0)"/>
<path d="" fill="#FFFFFF" transform="translate(0,0)"/>
<path d="" fill="#FFFFFF" transform="translate(0,0)"/>
<path d="" fill="#FFFFFF" transform="translate(0,0)"/>
<path d="" fill="#FFFFFF" transform="translate(0,0)"/>
<path d="" fill="#FFFFFF" transform="translate(0,0)"/>
<path d="" fill="#FFFFFF" transform="translate(0,0)"/>
<path d="" fill="#FFFFFF" transform="translate(0,0)"/>
<path d="" fill="#FFFFFF" transform="translate(0,0)"/>
<path d="" fill="#FFFFFF" transform="translate(0,0)"/>
<path d="" fill="#FFFFFF" transform="translate(0,0)"/>
<path d="" fill="#FFFFFF" transform="translate(0,0)"/>
<path d="" fill="#FFFFFF" transform="translate(0,0)"/>
<path d="" fill="#FFFFFF" transform="translate(0,0)"/>
<path d="" fill="#FFFFFF" transform="translate(0,0)"/>
<path d="" fill="#FFFFFF" transform="translate(0,0)"/>
<path d="" fill="#FFFFFF" transform="translate(0,0)"/>
<path d="" fill="#FFFFFF" transform="translate(0,0)"/>
<path d="" fill="#FFFFFF" transform="translate(0,0)"/>
<path d="" fill="#FFFFFF" transform="translate(0,0)"/>
<path d="" fill="#FFFFFF" transform="translate(0,0)"/>
</svg>
