<?xml version="1.0" encoding="UTF-8"?>
<svg version="1.1" xmlns="http://www.w3.org/2000/svg" width="225" height="225">
<path d="M0 0 C1.13192031 3.39576093 0.89720947 3.86788179 -0.4375 7 C-1.56692836 9.67416223 -2 11.02545489 -2 14 C-1.61328125 13.43410156 -1.2265625 12.86820313 -0.828125 12.28515625 C-0.30734375 11.55167969 0.2134375 10.81820312 0.75 10.0625 C1.51570313 8.96615234 1.51570313 8.96615234 2.296875 7.84765625 C4.19177915 5.79194601 5.27425729 5.37330824 8 5 C7.58821345 8.39723907 6.62676267 10.80011188 4.875 13.6875 C3.946875 15.3271875 3.946875 15.3271875 3 17 C3.33 17.66 3.66 18.32 4 19 C4.45229682 26.12367491 4.45229682 26.12367491 3 28.9375 C-0.14115935 30.6062409 -3.46384252 30.9714826 -7 31 C-7.99 30.67 -8.98 30.34 -10 30 C-10.04125 30.721875 -10.0825 31.44375 -10.125 32.1875 C-11.39465113 36.2685215 -13.57722785 37.48531026 -17 40 C-19.88415883 41.44207941 -22.41721528 41.09394887 -25.625 41.0625 C-26.81351562 41.05347656 -28.00203125 41.04445312 -29.2265625 41.03515625 C-30.14179688 41.02355469 -31.05703125 41.01195312 -32 41 C-32.0825 42.27875 -32.165 43.5575 -32.25 44.875 C-33.45502866 55.26430113 -38.30694165 64.00699222 -46.16015625 70.89453125 C-51.45784543 75 -51.45784543 75 -54 75 C-53.71125 76.08539063 -53.4225 77.17078125 -53.125 78.2890625 C-52.74961979 79.7342763 -52.37464103 81.17959441 -52 82.625 C-51.80921875 83.33785156 -51.6184375 84.05070312 -51.421875 84.78515625 C-50.34982713 88.95848544 -49.78053186 92.65178751 -50 97 C-48.515 97.495 -48.515 97.495 -47 98 C-46.67 98.66 -46.34 99.32 -46 100 C-45.2575 99.896875 -44.515 99.79375 -43.75 99.6875 C-41 100 -41 100 -38.625 102.25 C-37 105 -37 105 -36.875 107.1875 C-38 109 -38 109 -40.3125 110.3125 C-45.58627024 111.2957453 -50.72826736 110.9785851 -56 110 C-58 108 -58 108 -58.046875 105.6875 C-57.94890625 104.800625 -57.8509375 103.91375 -57.75 103 C-57.66234375 102.113125 -57.5746875 101.22625 -57.484375 100.3125 C-57 98 -57 98 -55 96 C-55.20541664 92.79727819 -55.20541664 92.79727819 -55.875 89.1875 C-56.56146946 85.06433849 -57.14344549 81.18382693 -57 77 C-58.19496094 77.2165625 -58.19496094 77.2165625 -59.4140625 77.4375 C-60.47367187 77.623125 -61.53328125 77.80875 -62.625 78 C-63.66914062 78.185625 -64.71328125 78.37125 -65.7890625 78.5625 C-68.90574865 78.98715797 -71.85930812 79.07545206 -75 79 C-75.55561711 81.62275173 -76.09492378 84.24707977 -76.625 86.875 C-76.78484375 87.62136719 -76.9446875 88.36773437 -77.109375 89.13671875 C-77.49370627 91.0758447 -77.75531287 93.03835574 -78 95 C-77.34 95.66 -76.68 96.32 -76 97 C-75.515625 99.53125 -75.515625 99.53125 -75.25 102.5 C-75.15203125 103.4796875 -75.0540625 104.459375 -74.953125 105.46875 C-75 108 -75 108 -77 110 C-80.1171875 110.265625 -80.1171875 110.265625 -83.875 110.25 C-85.72738281 110.25773437 -85.72738281 110.25773437 -87.6171875 110.265625 C-90.72188334 110.02183826 -92.41039696 109.63964816 -95 108 C-94.67 105.69 -94.34 103.38 -94 101 C-91.625 99.9375 -91.625 99.9375 -89 99 C-88.01 99.495 -88.01 99.495 -87 100 C-86.01 98.515 -86.01 98.515 -85 97 C-84.34 97 -83.68 97 -83 97 C-82.94392578 96.09121094 -82.94392578 96.09121094 -82.88671875 95.1640625 C-82.3859239 88.78138306 -81.04935314 83.05783632 -79 77 C-80.11375 76.82210937 -80.11375 76.82210937 -81.25 76.640625 C-87.63448332 75.15333059 -92.68847243 70.77763866 -97 66 C-98.2684375 64.6696875 -98.2684375 64.6696875 -99.5625 63.3125 C-104.22906778 57.61870032 -106.17025107 50.01403757 -108 43 C-109.155 43.04125 -110.31 43.0825 -111.5 43.125 C-117.52787109 43.0929936 -122.21451756 42.48157054 -126.9375 38.5625 C-129 36 -129 36 -130 33 C-131.5778125 33.0928125 -131.5778125 33.0928125 -133.1875 33.1875 C-138.13787213 32.94403908 -140.55589048 31.44410952 -144 28 C-143.69004847 24.71451376 -143.23248678 21.69746035 -142.1875 18.5625 C-141.92669639 14.99818402 -143.36456111 12.82825267 -145.08984375 9.76953125 C-146 8 -146 8 -146 6 C-143.75 6 -143.75 6 -141 7 C-139.73027122 8.99713273 -138.80973616 11.00658616 -137.89453125 13.1875 C-137.13637029 15.18354008 -137.13637029 15.18354008 -135 16 C-135.144375 15.40832031 -135.28875 14.81664063 -135.4375 14.20703125 C-136.40822694 10.07470059 -137.27593702 6.2770238 -137 2 C-136.01 2 -135.02 2 -134 2 C-131.33442742 8.05022986 -129.48969295 13.38914524 -129 20 C-127.68 20 -126.36 20 -125 20 C-124.7834375 21.8253125 -124.7834375 21.8253125 -124.5625 23.6875 C-124.41554688 24.78191406 -124.41554688 24.78191406 -124.265625 25.8984375 C-124.05935172 27.53042315 -123.92192177 29.17117349 -123.8125 30.8125 C-123.13567913 33.25416331 -123.13567913 33.25416331 -120.5 34.8125 C-116.19040553 36.27468384 -112.50068873 36.27004132 -108 36 C-107.69707031 34.92621094 -107.39414063 33.85242188 -107.08203125 32.74609375 C-102.9772059 18.60983185 -98.29542208 11.30895936 -84.96484375 3.86328125 C-75.18769553 -0.39216543 -63.77638277 0.243017 -54 4 C-43.37580882 9.33695719 -36.92605277 17.92820264 -33 29 C-32.44113015 31.39279091 -32.16393393 33.540991 -32 36 C-23.45881432 34.94429801 -23.45881432 34.94429801 -16 31 C-13.83745123 27.75617684 -13.78807723 27.53500231 -14.4375 24 C-14.97882504 20.99137241 -15.01131074 20.03393222 -14 17 C-13.360625 16.88140625 -12.72125 16.7628125 -12.0625 16.640625 C-11.381875 16.42921875 -10.70125 16.2178125 -10 16 C-8.7774546 13.62700009 -8.7774546 13.62700009 -8 10.75 C-4.44928479 0 -4.44928479 0 0 0 Z M-84 98 C-84.33 98.99 -84.66 99.98 -85 101 C-87.31 101 -89.62 101 -92 101 C-92.66 102.65 -93.32 104.3 -94 106 C-92.03565883 108.41119868 -92.03565883 108.41119868 -88.3125 108.1875 C-84.47507066 108.09629967 -80.78355996 107.63059333 -77 107 C-77.144375 105.700625 -77.28875 104.40125 -77.4375 103.0625 C-77.55931641 101.96615234 -77.55931641 101.96615234 -77.68359375 100.84765625 C-77.81886614 98.98859771 -77.81886614 98.98859771 -79 98 C-80.66617115 97.95936168 -82.33388095 97.957279 -84 98 Z M-55 99 C-55.185625 100.299375 -55.37125 101.59875 -55.5625 102.9375 C-55.66691406 103.66839844 -55.77132812 104.39929688 -55.87890625 105.15234375 C-55.91886719 105.76207031 -55.95882812 106.37179688 -56 107 C-53.57970111 109.42029889 -48.25357437 108.93129707 -45 109 C-41.52481314 108.20876287 -41.52481314 108.20876287 -39 107 C-39.33 105.35 -39.66 103.7 -40 102 C-42.76264289 101.40267181 -45.16032769 101 -48 101 C-48 100.34 -48 99.68 -48 99 C-50.31 99 -52.62 99 -55 99 Z " fill="#FAE906" transform="translate(182,52)"/>
<path d="M0 0 C1.18266254 3.54798762 1.31044867 6.81124919 1.5234375 10.52734375 C2.08286216 13.42993237 3.00520572 14.84256063 5 17 C7.58498512 18.26847685 7.58498512 18.26847685 10 19 C10 19.33 10 19.66 10 20 C8.35 20 6.7 20 5 20 C5 20.66 5 21.32 5 22 C6.32 22.66 7.64 23.32 9 24 C8.34 24.33 7.68 24.66 7 25 C7 25.66 7 26.32 7 27 C4.72880304 29.23334367 3.39706651 29.95840784 0.203125 30.29296875 C-0.77140625 30.25816406 -1.7459375 30.22335938 -2.75 30.1875 C-4.22726563 30.14689453 -4.22726563 30.14689453 -5.734375 30.10546875 C-6.48203125 30.07066406 -7.2296875 30.03585938 -8 30 C-8 31.65 -8 33.3 -8 35 C-3.71 34.34 0.58 33.68 5 33 C5 32.67 5 32.34 5 32 C1.7 32 -1.6 32 -5 32 C-5 31.67 -5 31.34 -5 31 C-3.78763672 30.85304688 -3.78763672 30.85304688 -2.55078125 30.703125 C5.54094811 29.68939184 5.54094811 29.68939184 12 25 C12.66 24.34 13.32 23.68 14 23 C14.33 24.32 14.66 25.64 15 27 C14.34 27 13.68 27 13 27 C13 28.32 13 29.64 13 31 C12.34 31.33 11.68 31.66 11 32 C10.34310735 33.41418374 9.7472569 34.85713207 9.1875 36.3125 C7.14531789 41.12348333 4.70536525 43.64731737 0 46 C-3.68012333 46.4000134 -5.3489289 46.51029897 -8.3125 44.1875 C-10.98164719 40.72749438 -11.21314219 37.55470196 -11.5625 33.3125 C-11.64628906 32.31863281 -11.73007813 31.32476562 -11.81640625 30.30078125 C-11.87699219 29.54152344 -11.93757813 28.78226563 -12 28 C-13.32 28.33 -14.64 28.66 -16 29 C-15.73958333 26.94921875 -15.47916667 24.8984375 -15.21875 22.84765625 C-14.89248813 20.34759505 -14.89248813 20.34759505 -16 18 C-15.71758117 15.6599583 -15.38749213 13.32495277 -15 11 C-14.443125 11.825 -13.88625 12.65 -13.3125 13.5 C-11.25514236 16.22074003 -11.25514236 16.22074003 -8.375 16.5 C-5.63634663 16.21277591 -5.63634663 16.21277591 -4 13 C-5.32 12.34 -6.64 11.68 -8 11 C-8 9.02 -8 7.04 -8 5 C-7.67 5.66 -7.34 6.32 -7 7 C-6.01 7 -5.02 7 -4 7 C-3.67 6.34 -3.34 5.68 -3 5 C-2.67 5.33 -2.34 5.66 -2 6 C-1.34 4.02 -0.68 2.04 0 0 Z " fill="#F8E80B" transform="translate(114,80)"/>
<path d="M0 0 C1.13192031 3.39576093 0.89720947 3.86788179 -0.4375 7 C-1.56692836 9.67416223 -2 11.02545489 -2 14 C-1.61328125 13.43410156 -1.2265625 12.86820313 -0.828125 12.28515625 C-0.30734375 11.55167969 0.2134375 10.81820312 0.75 10.0625 C1.51570313 8.96615234 1.51570313 8.96615234 2.296875 7.84765625 C4.19177915 5.79194601 5.27425729 5.37330824 8 5 C7.58821345 8.39723907 6.62676267 10.80011188 4.875 13.6875 C4.25625 14.780625 3.6375 15.87375 3 17 C3.495 17.99 3.495 17.99 4 19 C4.45229682 26.12367491 4.45229682 26.12367491 3 28.9375 C-0.14115935 30.6062409 -3.46384252 30.9714826 -7 31 C-7.99 30.67 -8.98 30.34 -10 30 C-10.04125 30.721875 -10.0825 31.44375 -10.125 32.1875 C-11.39465113 36.2685215 -13.57722785 37.48531026 -17 40 C-19.88415883 41.44207941 -22.41721528 41.09394887 -25.625 41.0625 C-26.81351563 41.05347656 -28.00203125 41.04445312 -29.2265625 41.03515625 C-30.14179688 41.02355469 -31.05703125 41.01195312 -32 41 C-32.33 42.32 -32.66 43.64 -33 45 C-33 41.7 -33 38.4 -33 35 C-31.68 35.0825 -30.36 35.165 -29 35.25 C-23.97251015 35.25794232 -20.08911031 33.93199996 -16 31 C-13.83745123 27.75617684 -13.78807723 27.53500231 -14.4375 24 C-14.97882504 20.99137241 -15.01131074 20.03393222 -14 17 C-13.360625 16.88140625 -12.72125 16.7628125 -12.0625 16.640625 C-11.0415625 16.32351562 -11.0415625 16.32351562 -10 16 C-8.7774546 13.62700009 -8.7774546 13.62700009 -8 10.75 C-4.44928479 0 -4.44928479 0 0 0 Z " fill="#191919" transform="translate(182,52)"/>
<path d="M0 0 C0.99 0 1.98 0 3 0 C5.66557258 6.05022986 7.51030705 11.38914524 8 18 C9.32 18 10.64 18 12 18 C12.2165625 19.8253125 12.2165625 19.8253125 12.4375 21.6875 C12.58445312 22.78191406 12.58445312 22.78191406 12.734375 23.8984375 C12.94064828 25.53042315 13.07807823 27.17117349 13.1875 28.8125 C13.85820218 31.24199362 13.85820218 31.24199362 16.4375 32.75 C20.94793328 34.33260817 25.25034065 34.72778632 30 35 C30 36.65 30 38.3 30 40 C23.76191008 41.0685617 18.99221795 41.19714658 13 39 C9.86152808 36.39573606 8.28970458 34.86911375 7 31 C5.4221875 31.0928125 5.4221875 31.0928125 3.8125 31.1875 C-1.13787213 30.94403908 -3.55589048 29.44410952 -7 26 C-6.69004847 22.71451376 -6.23248678 19.69746035 -5.1875 16.5625 C-4.92669639 12.99818402 -6.36456111 10.82825267 -8.08984375 7.76953125 C-9 6 -9 6 -9 4 C-6.75 4 -6.75 4 -4 5 C-2.73027122 6.99713273 -1.80973616 9.00658616 -0.89453125 11.1875 C-0.13637029 13.18354008 -0.13637029 13.18354008 2 14 C1.855625 13.40832031 1.71125 12.81664063 1.5625 12.20703125 C0.59177306 8.07470059 -0.27593702 4.2770238 0 0 Z " fill="#1B1B1B" transform="translate(45,54)"/>
<path d="M0 0 C0.66 1.32 1.32 2.64 2 4 C1.34 4 0.68 4 0 4 C0 5.32 0 6.64 0 8 C-0.99 8.495 -0.99 8.495 -2 9 C-2.65689265 10.41418374 -3.2527431 11.85713207 -3.8125 13.3125 C-5.85468211 18.12348333 -8.29463475 20.64731737 -13 23 C-16.68012333 23.4000134 -18.3489289 23.51029897 -21.3125 21.1875 C-24.08048091 17.5993766 -24.11411558 14.69982406 -24.0625 10.3125 C-24.05347656 9.31863281 -24.04445313 8.32476562 -24.03515625 7.30078125 C-24.02355469 6.54152344 -24.01195313 5.78226562 -24 5 C-23.01 5.33 -22.02 5.66 -21 6 C-21 7.98 -21 9.96 -21 12 C-16.71 11.34 -12.42 10.68 -8 10 C-8 9.67 -8 9.34 -8 9 C-11.3 9 -14.6 9 -18 9 C-18 8.67 -18 8.34 -18 8 C-17.19175781 7.90203125 -16.38351563 7.8040625 -15.55078125 7.703125 C-7.43771034 6.71798731 -7.43771034 6.71798731 -1 2 C-0.67 1.34 -0.34 0.68 0 0 Z " fill="#1F1A13" transform="translate(127,103)"/>
<path d="M0 0 C3.80159926 1.1126632 5.22808402 3.65847614 7.5625 6.75 C8.2225 7.08 8.8825 7.41 9.5625 7.75 C8.9025 10.39 8.2425 13.03 7.5625 15.75 C6.9025 15.09 6.2425 14.43 5.5625 13.75 C3.45429203 14.0685177 3.45429203 14.0685177 1.5625 14.75 C1.8925 16.4 2.2225 18.05 2.5625 19.75 C3.5525 19.75 4.5425 19.75 5.5625 19.75 C3.6875 23.625 3.6875 23.625 2.5625 24.75 C0.25 25.1875 0.25 25.1875 -2.4375 24.75 C-6.24121443 21.04908866 -6.74792793 18.00572225 -6.9375 12.75 C-6.73173248 7.04527285 -6.15320013 1.89329235 0 0 Z " fill="#F8F7EC" transform="translate(105.4375,72.25)"/>
<path d="M0 0 C0.67561372 2.5395837 1.34065828 5.08118835 2 7.625 C2.19078125 8.33785156 2.3815625 9.05070313 2.578125 9.78515625 C3.65017287 13.95848544 4.21946814 17.65178751 4 22 C4.99 22.33 5.98 22.66 7 23 C7.33 23.66 7.66 24.32 8 25 C8.7425 24.896875 9.485 24.79375 10.25 24.6875 C13 25 13 25 15.375 27.25 C17 30 17 30 17.125 32.1875 C16 34 16 34 13.6875 35.3125 C8.41372976 36.2957453 3.27173264 35.9785851 -2 35 C-4 33 -4 33 -4.046875 30.6875 C-3.89992188 29.3571875 -3.89992188 29.3571875 -3.75 28 C-3.66234375 27.113125 -3.5746875 26.22625 -3.484375 25.3125 C-3 23 -3 23 -1 21 C-1.20541664 17.79727819 -1.20541664 17.79727819 -1.875 14.1875 C-2.56146946 10.06433849 -3.14344549 6.18382693 -3 2 C-3.99 1.67 -4.98 1.34 -6 1 C-3 0 -3 0 0 0 Z M-1 24 C-1.185625 25.299375 -1.37125 26.59875 -1.5625 27.9375 C-1.66691406 28.66839844 -1.77132812 29.39929688 -1.87890625 30.15234375 C-1.91886719 30.76207031 -1.95882812 31.37179688 -2 32 C0.42029889 34.42029889 5.74642563 33.93129707 9 34 C12.47518686 33.20876287 12.47518686 33.20876287 15 32 C14.67 30.35 14.34 28.7 14 27 C11.23735711 26.40267181 8.83967231 26 6 26 C6 25.34 6 24.68 6 24 C3.69 24 1.38 24 -1 24 Z " fill="#363736" transform="translate(128,127)"/>
<path d="M0 0 C3.28611408 1.55658035 4.75101034 2.46645073 6.3125 5.8125 C6.9969388 8.98580718 7.15404779 11.76499638 7 15 C6.34 14.67 5.68 14.34 5 14 C5 13.34 5 12.68 5 12 C4.34 12 3.68 12 3 12 C2.67 12.99 2.34 13.98 2 15 C1.67 14.67 1.34 14.34 1 14 C1 15.65 1 17.3 1 19 C2.32 19.33 3.64 19.66 5 20 C3.75 21.5625 3.75 21.5625 2 23 C0 22.9375 0 22.9375 -2 22 C-5.77447217 17.78423382 -6.15659313 13.51555795 -6 8 C-4.51829549 3.85122738 -3.67113187 2.44742125 0 0 Z " fill="#F7F8EC" transform="translate(120,75)"/>
<path d="M0 0 C1.13192031 3.39576093 0.89720947 3.86788179 -0.4375 7 C-1.56692836 9.67416223 -2 11.02545489 -2 14 C-1.61328125 13.43410156 -1.2265625 12.86820313 -0.828125 12.28515625 C-0.30734375 11.55167969 0.2134375 10.81820312 0.75 10.0625 C1.26046875 9.33160156 1.7709375 8.60070312 2.296875 7.84765625 C4.19177915 5.79194601 5.27425729 5.37330824 8 5 C7.59120926 8.37252362 6.66812367 10.67428442 4.875 13.5 C2.71185487 16.77373583 2.71185487 16.77373583 3.25 19.9375 C3.4975 20.618125 3.745 21.29875 4 22 C1.525 21.01 1.525 21.01 -1 20 C-0.34 19.34 0.32 18.68 1 18 C-1.16874252 18.50603992 -2.99967627 18.99983813 -5 20 C-5.65555119 22.52733235 -5.65555119 22.52733235 -6 25 C-6.66 24.67 -7.32 24.34 -8 24 C-8.39171753 22.34608154 -8.72057545 20.67654729 -9 19 C-9.33 18.01 -9.66 17.02 -10 16 C-5.9628483 0 -5.9628483 0 0 0 Z " fill="#292929" transform="translate(182,52)"/>
<path d="M0 0 C0.99 0.33 1.98 0.66 3 1 C2.34 6.94 1.68 12.88 1 19 C1.66 19.33 2.32 19.66 3 20 C3.484375 22.43359375 3.484375 22.43359375 3.75 25.4375 C3.84796875 26.42621094 3.9459375 27.41492188 4.046875 28.43359375 C4 31 4 31 2 33 C-1.1171875 33.265625 -1.1171875 33.265625 -4.875 33.25 C-6.10992187 33.25515625 -7.34484375 33.2603125 -8.6171875 33.265625 C-11.72188334 33.02183826 -13.41039696 32.63964816 -16 31 C-15.67 28.69 -15.34 26.38 -15 24 C-12.625 22.9375 -12.625 22.9375 -10 22 C-9.34 22.33 -8.68 22.66 -8 23 C-7.34 22.01 -6.68 21.02 -6 20 C-5.34 20 -4.68 20 -4 20 C-3.96261719 19.39414063 -3.92523438 18.78828125 -3.88671875 18.1640625 C-3.3859239 11.78138306 -2.04935314 6.05783632 0 0 Z M-5 21 C-5.33 21.99 -5.66 22.98 -6 24 C-8.31 24 -10.62 24 -13 24 C-13.66 25.65 -14.32 27.3 -15 29 C-13.03565883 31.41119868 -13.03565883 31.41119868 -9.3125 31.1875 C-5.47507066 31.09629967 -1.78355996 30.63059333 2 30 C1.855625 28.700625 1.71125 27.40125 1.5625 26.0625 C1.44068359 24.96615234 1.44068359 24.96615234 1.31640625 23.84765625 C1.18113386 21.98859771 1.18113386 21.98859771 0 21 C-1.66617115 20.95936168 -3.33388095 20.957279 -5 21 Z " fill="#515151" transform="translate(103,129)"/>
<path d="M0 0 C0.99 0 1.98 0 3 0 C5.70071112 6.27980887 7.70024676 12.28460827 9 19 C8.01 19.33 7.02 19.66 6 20 C4.79117904 22.00016466 4.79117904 22.00016466 4 24 C5.65 23.34 7.3 22.68 9 22 C9 22.66 9 23.32 9 24 C7.02 24.33 5.04 24.66 3 25 C2.6596875 23.576875 2.6596875 23.576875 2.3125 22.125 C1.879375 21.09375 1.44625 20.0625 1 19 C0.2059375 18.71898438 -0.588125 18.43796875 -1.40625 18.1484375 C-4.88684053 16.60733266 -5.3775865 14.96201353 -6.8125 11.5 C-7.23144531 10.5203125 -7.65039062 9.540625 -8.08203125 8.53125 C-9 6 -9 6 -9 4 C-6.75 4 -6.75 4 -4 5 C-2.73027122 6.99713273 -1.80973616 9.00658616 -0.89453125 11.1875 C-0.13637029 13.18354008 -0.13637029 13.18354008 2 14 C1.855625 13.40832031 1.71125 12.81664063 1.5625 12.20703125 C0.59177306 8.07470059 -0.27593702 4.2770238 0 0 Z " fill="#1C1C1C" transform="translate(45,54)"/>
<path d="M0 0 C0.33 0 0.66 0 1 0 C1.46001702 3.14344966 1.48859148 5.2444928 -0.265625 7.95703125 C-1.77606107 9.75708978 -3.23148108 11.45140053 -5 13 C-5.66 13 -6.32 13 -7 13 C-7 13.66 -7 14.32 -7 15 C-2.87026372 14.43260132 -2.87026372 14.43260132 1 13 C1.66 13.33 2.32 13.66 3 14 C3 13.34 3 12.68 3 12 C4.98 12 6.96 12 9 12 C5.83045543 15.58267028 2.21303645 16.19934123 -2.3125 17.1875 C-3.05951172 17.36474609 -3.80652344 17.54199219 -4.57617188 17.72460938 C-11.0641789 19.19993319 -16.21983316 19.59645028 -22.5625 17.1875 C-23.92568359 16.68283203 -23.92568359 16.68283203 -25.31640625 16.16796875 C-28.04054637 14.98235318 -30.48994115 13.58410586 -33 12 C-32.360625 11.71125 -31.72125 11.4225 -31.0625 11.125 C-28.84793921 10.17176549 -28.84793921 10.17176549 -28 8 C-27.01 8.33 -26.02 8.66 -25 9 C-25.99 9.495 -25.99 9.495 -27 10 C-27 10.66 -27 11.32 -27 12 C-23.98968256 12.93423645 -23.13349732 13.04449911 -20 12 C-20.33 10.35 -20.66 8.7 -21 7 C-20.360625 7.804375 -19.72125 8.60875 -19.0625 9.4375 C-16.82258479 12.63622078 -16.82258479 12.63622078 -13.3125 13.3125 C-9.00017553 12.90567694 -7.23835185 11.88635709 -4 9 C-2.38048286 6.09586586 -1.1342775 3.12259924 0 0 Z " fill="#F1E31D" transform="translate(124,112)"/>
<path d="M0 0 C2.60018816 3.90028225 2.15085514 7.47434569 2 12 C7.65275661 15.80946641 12.22613615 16.72740991 19 17 C19 18.65 19 20.3 19 22 C12.76191008 23.0685617 7.99221795 23.19714658 2 21 C-1.65291684 18.06178428 -3.59534573 15.4693545 -5 11 C-4.0409375 10.2265625 -4.0409375 10.2265625 -3.0625 9.4375 C-0.44208319 6.34064377 -0.30610183 3.97932377 0 0 Z " fill="#181914" transform="translate(56,72)"/>
<path d="M0 0 C1.32 1.32 2.64 2.64 4 4 C1.72583362 9.26649055 -0.82930182 12.41465091 -6 15 C-8.2072923 15.07092842 -10.41667452 15.08415025 -12.625 15.0625 C-13.81351563 15.05347656 -15.00203125 15.04445313 -16.2265625 15.03515625 C-17.14179688 15.02355469 -18.05703125 15.01195313 -19 15 C-19.33 16.32 -19.66 17.64 -20 19 C-20 15.7 -20 12.4 -20 9 C-18.68 9.0825 -17.36 9.165 -16 9.25 C-10.92340403 9.24199275 -7.10068627 8.01294555 -3 5 C-0.98880254 2.43600226 -0.98880254 2.43600226 0 0 Z " fill="#333333" transform="translate(169,78)"/>
<path d="M0 0 C0.33 0.99 0.66 1.98 1 3 C-0.4375 5.1875 -0.4375 5.1875 -2 7 C-0.02 7 1.96 7 4 7 C4.33 8.32 4.66 9.64 5 11 C0.05 13.97 0.05 13.97 -5 17 C-5.66 16.34 -6.32 15.68 -7 15 C-6.34 14.34 -5.68 13.68 -5 13 C-5.99 12.67 -6.98 12.34 -8 12 C-7.67 10.35 -7.34 8.7 -7 7 C-8.65 7.66 -10.3 8.32 -12 9 C-10.30509374 3.91528123 -5.30390826 0 0 0 Z " fill="#333333" transform="translate(50,141)"/>
<path d="M0 0 C0.99 0.33 1.98 0.66 3 1 C3 2.98 3 4.96 3 7 C5.64 7 8.28 7 11 7 C10.01 8.485 10.01 8.485 9 10 C9.61875 10.2475 10.2375 10.495 10.875 10.75 C13.35068687 12.20628639 13.95125002 13.37812506 15 16 C11.59575912 18.09491746 8.96585158 18.49573145 5 18 C2.15219381 15.76793569 1.15002334 14.45007001 0 11 C-0.0685495 9.10529184 -0.08480372 7.2083166 -0.0625 5.3125 C-0.05347656 4.31863281 -0.04445313 3.32476562 -0.03515625 2.30078125 C-0.02355469 1.54152344 -0.01195313 0.78226562 0 0 Z " fill="#1A150C" transform="translate(103,108)"/>
<path d="M0 0 C1.8125 0.0859375 1.8125 0.0859375 4 0.375 C5.0828125 0.51035156 5.0828125 0.51035156 6.1875 0.6484375 C8 1 8 1 9 2 C9.22668785 4.79581678 9.23445574 6.54488004 7.9375 9.0625 C6.77543633 10.98836406 6.77543633 10.98836406 7.375 13.25 C7.58125 13.8275 7.7875 14.405 8 15 C6.68 14.67 5.36 14.34 4 14 C3.67 12.35 3.34 10.7 3 9 C2.34 9 1.68 9 1 9 C0.67 10.65 0.34 12.3 0 14 C-0.66 13.67 -1.32 13.34 -2 13 C-1.85966889 11.02043559 -1.7125877 9.04134859 -1.5625 7.0625 C-1.48128906 5.96035156 -1.40007812 4.85820312 -1.31640625 3.72265625 C-1 1 -1 1 0 0 Z M2 3 C2 3.99 2 4.98 2 6 C3.32 6 4.64 6 6 6 C5.67 5.01 5.34 4.02 5 3 C4.01 3 3.02 3 2 3 Z " fill="#2A2A2A" transform="translate(96,176)"/>
<path d="M0 0 C0.19335938 0.56589844 0.38671875 1.13179687 0.5859375 1.71484375 C0.84632813 2.44832031 1.10671875 3.18179688 1.375 3.9375 C1.63023437 4.66839844 1.88546875 5.39929688 2.1484375 6.15234375 C2.85271413 8.18682116 2.85271413 8.18682116 5 9 C5 9.66 5 10.32 5 11 C2.03 10.505 2.03 10.505 -1 10 C-1 11.32 -1 12.64 -1 14 C-1.99 14.33 -2.98 14.66 -4 15 C-5.98 11.04 -7.96 7.08 -10 3 C-4.375 -0.375 -4.375 -0.375 0 0 Z M-5 3 C-5 3.99 -5 4.98 -5 6 C-4.34 6 -3.68 6 -3 6 C-2.67 5.01 -2.34 4.02 -2 3 C-2.99 3 -3.98 3 -5 3 Z " fill="#313131" transform="translate(153,168)"/>
<path d="M0 0 C0.94552734 0.16242188 0.94552734 0.16242188 1.91015625 0.328125 C2.57015625 1.318125 3.23015625 2.308125 3.91015625 3.328125 C4.69390625 3.286875 5.47765625 3.245625 6.28515625 3.203125 C8.91015625 3.328125 8.91015625 3.328125 11.28515625 5.578125 C12.91015625 8.328125 12.91015625 8.328125 13.03515625 10.515625 C11.91015625 12.328125 11.91015625 12.328125 9.59765625 13.640625 C4.32388601 14.6238703 -0.81811111 14.3067101 -6.08984375 13.328125 C-8.08984375 11.328125 -8.08984375 11.328125 -8.1015625 8.98046875 C-7.99457031 8.08457031 -7.88757813 7.18867188 -7.77734375 6.265625 C-7.67808594 5.36714844 -7.57882813 4.46867188 -7.4765625 3.54296875 C-6.70197341 -0.89331421 -4.01838848 0.14585802 0 0 Z M-5.08984375 2.328125 C-5.27546875 3.6275 -5.46109375 4.926875 -5.65234375 6.265625 C-5.75675781 6.99652344 -5.86117187 7.72742188 -5.96875 8.48046875 C-6.00871094 9.09019531 -6.04867187 9.69992188 -6.08984375 10.328125 C-3.66954486 12.74842389 1.65658188 12.25942207 4.91015625 12.328125 C8.38534311 11.53688787 8.38534311 11.53688787 10.91015625 10.328125 C10.58015625 8.678125 10.25015625 7.028125 9.91015625 5.328125 C7.14751336 4.73079681 4.74982856 4.328125 1.91015625 4.328125 C1.91015625 3.668125 1.91015625 3.008125 1.91015625 2.328125 C-0.39984375 2.328125 -2.70984375 2.328125 -5.08984375 2.328125 Z " fill="#444444" transform="translate(132.08984375,148.671875)"/>
<path d="M0 0 C2.31 0 4.62 0 7 0 C5.64717831 4.42741644 3.76701112 6.36309221 0 9 C-0.99 9.495 -0.99 9.495 -2 10 C-1.34 10.33 -0.68 10.66 0 11 C-4.72194167 14.77755334 -9.25928072 14.30096975 -15 14 C-15 12.35 -15 10.7 -15 9 C-14.21753906 8.95101562 -13.43507813 8.90203125 -12.62890625 8.8515625 C-11.61699219 8.77679688 -10.60507813 8.70203125 -9.5625 8.625 C-8.55316406 8.55539063 -7.54382813 8.48578125 -6.50390625 8.4140625 C-5.26447266 8.20910156 -5.26447266 8.20910156 -4 8 C-3.67 7.34 -3.34 6.68 -3 6 C-2.01 6 -1.02 6 0 6 C0 4.68 0 3.36 0 2 C0 1.34 0 0.68 0 0 Z " fill="#E6DA22" transform="translate(121,101)"/>
<path d="M0 0 C-0.33 0.99 -0.66 1.98 -1 3 C-1.99 3.33 -2.98 3.66 -4 4 C-4.33 4.66 -4.66 5.32 -5 6 C-3.35 5.67 -1.7 5.34 0 5 C0.33 5.99 0.66 6.98 1 8 C-0.65 8.33 -2.3 8.66 -4 9 C-3.34 9.66 -2.68 10.32 -2 11 C0.60280568 10.67958603 0.60280568 10.67958603 3 10 C3 10.99 3 11.98 3 13 C-0.37097383 14.49821059 -2.20442119 15 -6 15 C-6.53341184 13.42085985 -7.05125763 11.83645613 -7.5625 10.25 C-7.85253906 9.36828125 -8.14257812 8.4865625 -8.44140625 7.578125 C-9.01697435 4.92165684 -8.89248371 3.52968894 -8 1 C-5.10765685 0.17361624 -3.11257569 0 0 0 Z " fill="#343434" transform="translate(137,174)"/>
<path d="M0 0 C0.99 0.66 1.98 1.32 3 2 C2.67 2.99 2.34 3.98 2 5 C3.65 4.34 5.3 3.68 7 3 C7.66 3.66 8.32 4.32 9 5 C8.360625 5.309375 7.72125 5.61875 7.0625 5.9375 C3.90231425 9.09768575 4.18099207 12.68333908 4 17 C3.01 16.67 2.02 16.34 1 16 C1 14.02 1 12.04 1 10 C0.401875 10.515625 -0.19625 11.03125 -0.8125 11.5625 C-1.534375 12.036875 -2.25625 12.51125 -3 13 C-3.99 12.67 -4.98 12.34 -6 12 C-4.02 8.04 -2.04 4.08 0 0 Z " fill="#323332" transform="translate(74,167)"/>
<path d="M0 0 C1.72431135 5.38407422 2.855618 11.56569015 1 17 C-1.0625 19.375 -1.0625 19.375 -3 21 C-3.66 20.67 -4.32 20.34 -5 20 C-4.34 19.34 -3.68 18.68 -3 18 C-3.99 17.67 -4.98 17.34 -6 17 C-6.33 15.02 -6.66 13.04 -7 11 C-6.34 11.33 -5.68 11.66 -5 12 C-4.67 11.34 -4.34 10.68 -4 10 C-3.34 10 -2.68 10 -2 10 C-1.67 10.66 -1.34 11.32 -1 12 C-1.17249973 5.76312464 -1.17249973 5.76312464 -4.0625 0.4375 C-4.701875 -0.036875 -5.34125 -0.51125 -6 -1 C-8.46800047 0.15173355 -10.04783565 1.04783565 -12 3 C-12.33 1.35 -12.66 -0.3 -13 -2 C-7.76481271 -3.34619102 -4.52566413 -3.01710942 0 0 Z " fill="#CCC234" transform="translate(127,77)"/>
<path d="M0 0 C0.99 0.99 1.98 1.98 3 3 C1.37660195 4.70884005 -0.29319053 6.37446717 -2 8 C-2.66 8 -3.32 8 -4 8 C-4 9.32 -4 10.64 -4 12 C-0.06326356 10.68775452 2.22719294 9.08089673 5 6 C5.99 6.33 6.98 6.66 8 7 C7.02133662 8.14626322 6.04205413 9.29199788 5.0625 10.4375 C4.51722656 11.07558594 3.97195312 11.71367187 3.41015625 12.37109375 C1.15622408 14.97466637 1.15622408 14.97466637 -1.3125 15.375 C-4 15 -4 15 -6.3125 12.5 C-6.869375 11.675 -7.42625 10.85 -8 10 C-7.04367001 8.70684939 -6.08486149 7.41553147 -5.125 6.125 C-4.59132812 5.40570313 -4.05765625 4.68640625 -3.5078125 3.9453125 C-2 2 -2 2 0 0 Z " fill="#272727" transform="translate(56,152)"/>
<path d="M0 0 C0.33 0.66 0.66 1.32 1 2 C-1.97 1.67 -4.94 1.34 -8 1 C-8.33 2.32 -8.66 3.64 -9 5 C-8.09507813 4.94779297 -8.09507813 4.94779297 -7.171875 4.89453125 C-0.73671076 4.67656601 -0.73671076 4.67656601 2.5625 6.125 C4.58743318 8.76621719 4.28748553 10.76578783 4 14 C2.86195831 12.29293746 1.7430569 10.5717615 0.6875 8.8125 C-0.88834744 6.77802217 -0.88834744 6.77802217 -3.5 6.4375 C-6.1788038 6.75699795 -6.1788038 6.75699795 -7.61328125 9.140625 C-9.1722184 12.35510949 -9.49229304 14.75973328 -9.6875 18.3125 C-9.78611328 19.91544922 -9.78611328 19.91544922 -9.88671875 21.55078125 C-9.92410156 22.35902344 -9.96148437 23.16726562 -10 24 C-10.33 24 -10.66 24 -11 24 C-11.33 19.05 -11.66 14.1 -12 9 C-11.34 8.67 -10.68 8.34 -10 8 C-10.66 7.01 -11.32 6.02 -12 5 C-11.8125 2.9375 -11.8125 2.9375 -11 1 C-6.78915963 -1.80722691 -4.88445782 -0.94537893 0 0 Z " fill="#ABA028" transform="translate(109,67)"/>
<path d="M0 0 C2.9375 0.125 2.9375 0.125 6 1 C7.375 3.5625 7.375 3.5625 8 6 C7.01 6 6.02 6 5 6 C4.67 5.34 4.34 4.68 4 4 C3.01 3.67 2.02 3.34 1 3 C1.495 3.556875 1.99 4.11375 2.5 4.6875 C4.24754367 7.38162983 4.26218749 8.85375007 4 12 C2.35 12.66 0.7 13.32 -1 14 C-3.5 12.1875 -3.5 12.1875 -6 10 C-6 9.01 -6 8.02 -6 7 C-5.01 7.33 -4.02 7.66 -3 8 C-3 8.66 -3 9.32 -3 10 C-1.68 10.33 -0.36 10.66 1 11 C0.2265625 9.9171875 0.2265625 9.9171875 -0.5625 8.8125 C-2 6 -2 6 -1.75 3.25 C-1 1 -1 1 0 0 Z " fill="#242424" transform="translate(64,162)"/>
<path d="M0 0 C3.51799762 1.95444312 6.39208869 3.90914215 9 7 C9 7.99 9 8.98 9 10 C6.525 9.01 6.525 9.01 4 8 C3.30840599 9.84725052 3.30840599 9.84725052 3 12 C3.99 13.485 3.99 13.485 5 15 C1.22089522 15 0.53893899 14.00296038 -2.1875 11.5 C-3.26064453 10.52546875 -3.26064453 10.52546875 -4.35546875 9.53125 C-5.16951172 8.77328125 -5.16951172 8.77328125 -6 8 C-5.67 7.01 -5.34 6.02 -5 5 C-3.02 5.99 -1.04 6.98 1 8 C0.7525 6.8553125 0.7525 6.8553125 0.5 5.6875 C0 3 0 3 0 0 Z " fill="#232323" transform="translate(169,151)"/>
<path d="M0 0 C0.66 0 1.32 0 2 0 C3.65 4.29 5.3 8.58 7 13 C3.23375329 14.25541557 1.62811066 13.37061958 -2 12 C-2 12.66 -2 13.32 -2 14 C-2.99 14 -3.98 14 -5 14 C-4.54636829 12.41531323 -4.08688548 10.83230076 -3.625 9.25 C-3.36976562 8.36828125 -3.11453125 7.4865625 -2.8515625 6.578125 C-2.0790066 4.23919428 -1.16374324 2.16557438 0 0 Z M0 7 C0 7.66 0 8.32 0 9 C0.66 9 1.32 9 2 9 C2 8.34 2 7.68 2 7 C1.34 7 0.68 7 0 7 Z " fill="#464646" transform="translate(111,177)"/>
<path d="M0 0 C2.875 2.25 2.875 2.25 5 5 C4.8125 7.8125 4.8125 7.8125 4 10 C-2.23333333 11.46666667 -2.23333333 11.46666667 -5.875 9.25 C-8 7 -8 7 -9 4 C-7.11097304 -0.94053206 -4.96623296 -1.61691306 0 0 Z M-4 2 C-4.77242269 3.83700789 -4.77242269 3.83700789 -5 6 C-3.89661743 7.85353452 -3.89661743 7.85353452 -2 9 C-0.68 9 0.64 9 2 9 C1.89386164 6.54775306 1.89386164 6.54775306 1 4 C-1.47636012 2.62533375 -1.47636012 2.62533375 -4 2 Z " fill="#2B2B2B" transform="translate(181,143)"/>
<path d="M0 0 C0.99 0.66 1.98 1.32 3 2 C2.01 5.3 1.02 8.6 0 12 C1.32 11.67 2.64 11.34 4 11 C5.13070444 9.15272433 5.13070444 9.15272433 5.75 6.9375 C5.99234375 6.20402344 6.2346875 5.47054687 6.484375 4.71484375 C6.65453125 4.14894531 6.8246875 3.58304688 7 3 C7.99 3 8.98 3 10 3 C9.54965877 4.62723299 9.08944646 6.25173664 8.625 7.875 C8.36976562 8.77992188 8.11453125 9.68484375 7.8515625 10.6171875 C7 13 7 13 5 15 C2.20155166 15.35877543 0.596692 15.33812547 -1.875 13.9375 C-3.68388988 10.82218966 -2.76566937 8.41606334 -2 5 C-0.9375 2.0625 -0.9375 2.0625 0 0 Z " fill="#252525" transform="translate(84,172)"/>
<path d="M0 0 C4.77609498 1.64178265 8.79382904 4.26546702 13 7 C12.67 7.66 12.34 8.32 12 9 C11.195625 9.12375 10.39125 9.2475 9.5625 9.375 C6.84016601 9.72567164 6.84016601 9.72567164 5.6875 12.0625 C5.460625 12.701875 5.23375 13.34125 5 14 C4.34 14 3.68 14 3 14 C1.68 9.71 0.36 5.42 -1 1 C-0.67 0.67 -0.34 0.34 0 0 Z M3 5 C3.99 6.485 3.99 6.485 5 8 C5 7.01 5 6.02 5 5 C4.34 5 3.68 5 3 5 Z " fill="#232323" transform="translate(157,162)"/>
<path d="M0 0 C1.53166168 4.08443115 0.63081652 7.79455657 0 12 C-1.65 12 -3.3 12 -5 12 C-4.979375 12.804375 -4.95875 13.60875 -4.9375 14.4375 C-5 17 -5 17 -6 18 C-6.23481693 20.18292774 -6.41363323 22.37203174 -6.5625 24.5625 C-6.64628906 25.76003906 -6.73007813 26.95757812 -6.81640625 28.19140625 C-6.87699219 29.11824219 -6.93757813 30.04507813 -7 31 C-9.79919049 26.22618676 -9.0007389 22.27727781 -8 17 C-6.34316899 10.67891485 -4.73384649 4.73384649 0 0 Z " fill="#C6BB20" transform="translate(83,67)"/>
<path d="M0 0 C0.556875 0.804375 1.11375 1.60875 1.6875 2.4375 C4.21864487 5.24228216 5.32579134 5.69381595 9 6 C5.25 8 5.25 8 3 8 C2.9384058 11.41136476 2.9384058 11.41136476 4 15 C6.28141342 16.59040839 8.29874113 17.16506544 11 18 C7.33572029 19.35714063 5.49363912 18.52286834 2 17 C1.01 17 0.02 17 -1 17 C-0.835 15.865625 -0.67 14.73125 -0.5 13.5625 C0.2343858 9.93068563 0.2343858 9.93068563 -1 7 C-0.71758117 4.6599583 -0.38749213 2.32495277 0 0 Z " fill="#DDD120" transform="translate(99,91)"/>
<path d="M0 0 C1.98 0 3.96 0 6 0 C2.83045543 3.58267028 -0.78696355 4.19934123 -5.3125 5.1875 C-6.05951172 5.36474609 -6.80652344 5.54199219 -7.57617188 5.72460938 C-14.65066141 7.33329488 -20.11055583 7.20462213 -27 5 C-26.67 4.01 -26.34 3.02 -26 2 C-21.25 2.875 -21.25 2.875 -19 4 C-17.29636178 4.22622081 -15.58671299 4.40888473 -13.875 4.5625 C-12.96492188 4.64628906 -12.05484375 4.73007813 -11.1171875 4.81640625 C-10.41851562 4.87699219 -9.71984375 4.93757812 -9 5 C-9 4.34 -9 3.68 -9 3 C-7.824375 2.7834375 -7.824375 2.7834375 -6.625 2.5625 C-4.03578982 2.12201075 -4.03578982 2.12201075 -2 1 C-1.34 1.33 -0.68 1.66 0 2 C0 1.34 0 0.68 0 0 Z " fill="#C1B321" transform="translate(127,124)"/>
<path d="M0 0 C0 0.99 0 1.98 0 3 C-0.99 3 -1.98 3 -3 3 C-2.67 6.63 -2.34 10.26 -2 14 C-2.99 14 -3.98 14 -5 14 C-5.33 10.7 -5.66 7.4 -6 4 C-7.32 4 -8.64 4 -10 4 C-10 3.01 -10 2.02 -10 1 C-3.375 0 -3.375 0 0 0 Z " fill="#3E3E3E" transform="translate(127,176)"/>
<path d="M0 0 C0.33 0.99 0.66 1.98 1 3 C0.02727325 4.35335895 -0.9739266 5.68662604 -2 7 C-2 7.99 -2 8.98 -2 10 C-2.99 10 -3.98 10 -5 10 C-5.66 9.01 -6.32 8.02 -7 7 C-8.65 7.66 -10.3 8.32 -12 9 C-10.30509374 3.91528123 -5.30390826 0 0 0 Z " fill="#4A4A4A" transform="translate(50,141)"/>
<path d="M0 0 C0.99 0.33 1.98 0.66 3 1 C2.5547115 6.27315333 1.91626837 11.01770224 0 16 C-0.66 16 -1.32 16 -2 16 C-2.33 16.99 -2.66 17.98 -3 19 C-3.33693273 12.03672362 -2.3030887 6.56654456 0 0 Z " fill="#242224" transform="translate(103,129)"/>
<path d="M0 0 C1.8583659 2.78754885 2.07524976 4.81040793 1.9375 8.0625 C1.61281332 11.89154805 1.61281332 11.89154805 3.5 14 C3.995 14.33 4.49 14.66 5 15 C0.375 17.125 0.375 17.125 -3 16 C-4.1875 13.4375 -4.1875 13.4375 -5 11 C-4.0409375 10.2265625 -4.0409375 10.2265625 -3.0625 9.4375 C-0.44208319 6.34064377 -0.30610183 3.97932377 0 0 Z " fill="#1D1D1D" transform="translate(56,72)"/>
<path d="M0 0 C1.32 0.66 2.64 1.32 4 2 C4.33 1.34 4.66 0.68 5 0 C5 1.65 5 3.3 5 5 C5.66 5.33 6.32 5.66 7 6 C7.40729228 8.32156597 7.74438677 10.6568787 8 13 C6.68 12.34 5.36 11.68 4 11 C4 10.01 4 9.02 4 8 C2.35 8 0.7 8 -1 8 C-1.33 8.99 -1.66 9.98 -2 11 C-2.66 10.67 -3.32 10.34 -4 10 C-3.34 8.68 -2.68 7.36 -2 6 C-1.34 6 -0.68 6 0 6 C0 4.02 0 2.04 0 0 Z " fill="#5B5C5B" transform="translate(99,143)"/>
<path d="M0 0 C-0.53115106 4.51478398 -2.36620292 7.34666857 -5 11 C-6.32 10.67 -7.64 10.34 -9 10 C-8.42562214 6.12294944 -6.57271945 3.88456423 -4 1 C-2 0 -2 0 0 0 Z " fill="#232323" transform="translate(190,57)"/>
<path d="M0 0 C2.25 0 2.25 0 5 1 C7.05695657 3.99014453 9 7.313902 9 11 C6.75 11 6.75 11 4 10 C1.94304343 7.00985547 0 3.686098 0 0 Z " fill="#191918" transform="translate(36,58)"/>
<path d="M0 0 C2.0625 2.3125 2.0625 2.3125 4 5 C3.67 5.99 3.34 6.98 3 8 C1.35 7.67 -0.3 7.34 -2 7 C-1.01 6.34 -0.02 5.68 1 5 C0.67 3.35 0.34 1.7 0 0 Z M-7 1 C-6.01 1.33 -5.02 1.66 -4 2 C-4.99 2.495 -4.99 2.495 -6 3 C-6 3.66 -6 4.32 -6 5 C-4.68 5.66 -3.36 6.32 -2 7 C-2.33 7.66 -2.66 8.32 -3 9 C-6.77545388 7.90931332 -9.47043472 7.0916909 -12 4 C-11.360625 3.87625 -10.72125 3.7525 -10.0625 3.625 C-9.0415625 3.315625 -9.0415625 3.315625 -8 3 C-7.67 2.34 -7.34 1.68 -7 1 Z " fill="#DBD013" transform="translate(103,119)"/>
<path d="M0 0 C0.66 1.32 1.32 2.64 2 4 C1.34 4 0.68 4 0 4 C0 5.32 0 6.64 0 8 C-0.99 8.495 -0.99 8.495 -2 9 C-2.99 10.485 -2.99 10.485 -4 12 C-4.66 11.01 -5.32 10.02 -6 9 C-8.89608399 8.63501966 -8.89608399 8.63501966 -12.125 8.8125 C-13.22070312 8.83957031 -14.31640625 8.86664063 -15.4453125 8.89453125 C-16.70988281 8.94673828 -16.70988281 8.94673828 -18 9 C-18 8.67 -18 8.34 -18 8 C-16.78763672 7.85304688 -16.78763672 7.85304688 -15.55078125 7.703125 C-7.43771034 6.71798731 -7.43771034 6.71798731 -1 2 C-0.67 1.34 -0.34 0.68 0 0 Z " fill="#4A420C" transform="translate(127,103)"/>
<path d="M0 0 C0.99 0 1.98 0 3 0 C1.24168035 6.66310605 -1.3331597 11.8720647 -6 17 C-6.33 17 -6.66 17 -7 17 C-7 14.69 -7 12.38 -7 10 C-5.35 9.67 -3.7 9.34 -2 9 C-2 7.68 -2 6.36 -2 5 C-1.34 5 -0.68 5 0 5 C0 3.35 0 1.7 0 0 Z " fill="#CCC120" transform="translate(145,103)"/>
<path d="M0 0 C1.11761719 0.07863281 2.23523438 0.15726563 3.38671875 0.23828125 C6.3125 0.6875 6.3125 0.6875 9.3125 2.6875 C8.71300537 2.67178955 8.11351074 2.6560791 7.49584961 2.63989258 C4.74733123 2.5770587 1.99896458 2.53835765 -0.75 2.5 C-1.69294922 2.47486328 -2.63589844 2.44972656 -3.60742188 2.42382812 C-9.50107229 2.36222202 -13.43835234 3.00824755 -18.6875 5.6875 C-21.625 6.375 -21.625 6.375 -23.6875 6.6875 C-21.57917183 4.35071522 -19.83278031 3.12426729 -16.875 2.0625 C-16.22917969 1.82273438 -15.58335938 1.58296875 -14.91796875 1.3359375 C-9.83793377 -0.14092031 -5.26354233 -0.4095904 0 0 Z " fill="#ABA532" transform="translate(115.6875,53.3125)"/>
<path d="M0 0 C2.97 0.33 5.94 0.66 9 1 C8.01 1.495 8.01 1.495 7 2 C7 2.99 7 3.98 7 5 C8.32 5.33 9.64 5.66 11 6 C7.7 6 4.4 6 1 6 C0.67 7.32 0.34 8.64 0 10 C0 6.7 0 3.4 0 0 Z " fill="#1A1A0A" transform="translate(149,87)"/>
<path d="M0 0 C0 1.65 0 3.3 0 5 C-2.1875 5.8125 -2.1875 5.8125 -5 6 C-7.8125 3.5625 -7.8125 3.5625 -10 1 C-6.1496895 -1.56687367 -4.41430237 -0.83288724 0 0 Z " fill="#171717" transform="translate(65,88)"/>
<path d="M0 0 C6.4 -0.49230769 6.4 -0.49230769 9.4375 2 C10.2109375 2.99 10.2109375 2.99 11 4 C10.34 5.32 9.68 6.64 9 8 C7.68 8 6.36 8 5 8 C5 6.68 5 5.36 5 4 C4.34 4 3.68 4 3 4 C3 3.01 3 2.02 3 1 C2.01 0.67 1.02 0.34 0 0 Z " fill="#AEA415" transform="translate(118,65)"/>
<path d="M0 0 C0.94552734 0.16242188 0.94552734 0.16242188 1.91015625 0.328125 C2.57015625 1.318125 3.23015625 2.308125 3.91015625 3.328125 C6.49395802 3.57843477 6.49395802 3.57843477 8.91015625 3.328125 C9.24015625 3.988125 9.57015625 4.648125 9.91015625 5.328125 C6.94015625 5.328125 3.97015625 5.328125 0.91015625 5.328125 C1.24015625 4.338125 1.57015625 3.348125 1.91015625 2.328125 C-0.06984375 2.658125 -2.04984375 2.988125 -4.08984375 3.328125 C-4.41984375 4.648125 -4.74984375 5.968125 -5.08984375 7.328125 C-5.74984375 7.328125 -6.40984375 7.328125 -7.08984375 7.328125 C-7.41984375 8.648125 -7.74984375 9.968125 -8.08984375 11.328125 C-7.94941498 9.68182172 -7.80235046 8.03608321 -7.65234375 6.390625 C-7.57113281 5.47410156 -7.48992187 4.55757812 -7.40625 3.61328125 C-6.77846166 -0.92074567 -4.05970274 0.14735763 0 0 Z " fill="#888888" transform="translate(132.08984375,148.671875)"/>
<path d="M0 0 C4.75 0.75 4.75 0.75 7 3 C7 4.32 7 5.64 7 7 C5.824375 6.9690625 5.824375 6.9690625 4.625 6.9375 C2.01885039 6.81315937 2.01885039 6.81315937 0 8 C-0.79953138 4.71303767 -1.09658936 3.28976808 0 0 Z " fill="#242424" transform="translate(168,69)"/>
<path d="M0 0 C0.495 0.515625 0.99 1.03125 1.5 1.5625 C2.89439669 3.23063512 2.89439669 3.23063512 5 3 C5.33 2.01 5.66 1.02 6 0 C6.33 1.32 6.66 2.64 7 4 C6.01 4.33 5.02 4.66 4 5 C2.79117904 7.00016466 2.79117904 7.00016466 2 9 C3.65 8.34 5.3 7.68 7 7 C7 7.66 7 8.32 7 9 C5.02 9.33 3.04 9.66 1 10 C0.773125 9.05125 0.54625 8.1025 0.3125 7.125 C-0.69083714 3.80676612 -0.69083714 3.80676612 -3.625 2.625 C-4.40875 2.41875 -5.1925 2.2125 -6 2 C-6 1.34 -6 0.68 -6 0 C-2.25 -1.125 -2.25 -1.125 0 0 Z " fill="#737373" transform="translate(47,69)"/>
<path d="M0 0 C3.11264357 3.11264357 3.55376756 6.76361605 4 11 C3.87508633 16.02652606 3.48800791 20.99462153 3 26 C2.67 26 2.34 26 2 26 C1.34 17.42 0.68 8.84 0 0 Z " fill="#C8BF2F" transform="translate(146,76)"/>
<path d="M0 0 C0.99 0.33 1.98 0.66 3 1 C4.1875 4.5625 4.1875 4.5625 5 8 C0.545 7.01 0.545 7.01 -4 6 C-4 6.66 -4 7.32 -4 8 C-4.99 8 -5.98 8 -7 8 C-5.25 4.125 -5.25 4.125 -3 3 C-0.875 3.4375 -0.875 3.4375 1 4 C0.67 2.68 0.34 1.36 0 0 Z " fill="#171717" transform="translate(113,183)"/>
<path d="M0 0 C4.95 0 9.9 0 15 0 C13 3 13 3 10 4 C8.27204648 4.06802967 6.54164635 4.08495645 4.8125 4.0625 C3.46091797 4.04896484 3.46091797 4.04896484 2.08203125 4.03515625 C1.39496094 4.02355469 0.70789063 4.01195313 0 4 C0 2.68 0 1.36 0 0 Z " fill="#EDECE1" transform="translate(106,111)"/>
<path d="M0 0 C2.4375 1.1875 2.4375 1.1875 5 3 C5.8125 5.6875 5.8125 5.6875 6 8 C3.525 7.01 3.525 7.01 1 6 C1.66 5.34 2.32 4.68 3 4 C0.83125748 4.50603992 -0.99967627 4.99983813 -3 6 C-3.65555119 8.52733235 -3.65555119 8.52733235 -4 11 C-4.66 10.67 -5.32 10.34 -6 10 C-6.72886734 7.2303041 -7 4.87137415 -7 2 C-5.515 2.99 -5.515 2.99 -4 4 C-2.68 3.34 -1.36 2.68 0 2 C0 1.34 0 0.68 0 0 Z " fill="#6E6E6E" transform="translate(180,66)"/>
<path d="M0 0 C7.875 0.875 7.875 0.875 9 2 C9.04063832 3.66617115 9.042721 5.33388095 9 7 C8.01 6.67 7.02 6.34 6 6 C5.67 5.34 5.34 4.68 5 4 C4.01 3.67 3.02 3.34 2 3 C1.67 3.99 1.34 4.98 1 6 C0.34 5.67 -0.32 5.34 -1 5 C-0.67 3.35 -0.34 1.7 0 0 Z " fill="#363636" transform="translate(96,176)"/>
<path d="M0 0 C-0.33 0.99 -0.66 1.98 -1 3 C-1.99 3.33 -2.98 3.66 -4 4 C-4.33 4.66 -4.66 5.32 -5 6 C-4.34 6.33 -3.68 6.66 -3 7 C-4.65 7.33 -6.3 7.66 -8 8 C-8.33 6.02 -8.66 4.04 -9 2 C-5.62902617 0.50178941 -3.79557881 0 0 0 Z " fill="#4C4C4C" transform="translate(137,174)"/>
<path d="M0 0 C2.875 -0.1875 2.875 -0.1875 6 0 C6.66 0.99 7.32 1.98 8 3 C4.5980513 5.09350689 1.94727588 5.17942163 -2 5 C-1.34 3.35 -0.68 1.7 0 0 Z " fill="#932714" transform="translate(110,121)"/>
<path d="M0 0 C-0.99 1.485 -0.99 1.485 -2 3 C-0.68 3.66 0.64 4.32 2 5 C0.02 5 -1.96 5 -4 5 C-4.66 6.32 -5.32 7.64 -6 9 C-7 6 -7 6 -6 3 C-6.66 3 -7.32 3 -8 3 C-8 2.34 -8 1.68 -8 1 C-5.29120665 -0.35439668 -2.99066732 -0.06501451 0 0 Z " fill="#2C181C" transform="translate(114,115)"/>
<path d="M0 0 C0.66 0 1.32 0 2 0 C2 0.66 2 1.32 2 2 C3.32 2.33 4.64 2.66 6 3 C6.66666667 5.66666667 7.33333333 8.33333333 8 11 C8.66 11 9.32 11 10 11 C9.67 11.66 9.34 12.32 9 13 C5.41193683 9.61127367 2.54315201 6.23858668 0 2 C0 1.34 0 0.68 0 0 Z " fill="#DFD321" transform="translate(79,108)"/>
<path d="M0 0 C0.33 0.66 0.66 1.32 1 2 C1.99 2 2.98 2 4 2 C4.33 1.34 4.66 0.68 5 0 C5.625 2.3125 5.625 2.3125 6 5 C5.01 6.485 5.01 6.485 4 8 C2.68 7.34 1.36 6.68 0 6 C0 4.02 0 2.04 0 0 Z " fill="#21221F" transform="translate(106,85)"/>
<path d="M0 0 C0.33 0.66 0.66 1.32 1 2 C1.66 2.28875 2.32 2.5775 3 2.875 C5 4 5 4 5.6875 5.9375 C5.790625 6.618125 5.89375 7.29875 6 8 C6.33 8.99 6.66 9.98 7 11 C6.01 11.33 5.02 11.66 4 12 C3.13353333 10.56988027 2.28218171 9.13059381 1.4375 7.6875 C0.72400391 6.48673828 0.72400391 6.48673828 -0.00390625 5.26171875 C-1 3 -1 3 0 0 Z " fill="#212121" transform="translate(145,171)"/>
<path d="M0 0 C3.375 -0.125 3.375 -0.125 7 0 C7.66 0.66 8.32 1.32 9 2 C8.67 2.66 8.34 3.32 8 4 C5.03 4 2.06 4 -1 4 C-0.67 2.68 -0.34 1.36 0 0 Z " fill="#F8EA17" transform="translate(101,68)"/>
<path d="M0 0 C0.33 2.64 0.66 5.28 1 8 C0.01 8.66 -0.98 9.32 -2 10 C-2.33 7.36 -2.66 4.72 -3 2 C-3.99 1.67 -4.98 1.34 -6 1 C-3 0 -3 0 0 0 Z " fill="#262413" transform="translate(128,127)"/>
<path d="M0 0 C1.65 0 3.3 0 5 0 C5.66 1.32 6.32 2.64 7 4 C5.02 4.99 5.02 4.99 3 6 C3 5.01 3 4.02 3 3 C1.02 3.99 1.02 3.99 -1 5 C-0.67 3.35 -0.34 1.7 0 0 Z " fill="#030303" transform="translate(39,74)"/>
<path d="M0 0 C0.99 0.66 1.98 1.32 3 2 C2.57742724 3.4835001 2.13643678 4.96176424 1.6875 6.4375 C1.44386719 7.26121094 1.20023437 8.08492187 0.94921875 8.93359375 C0.63597656 9.61550781 0.32273437 10.29742187 0 11 C-0.99 11.33 -1.98 11.66 -3 12 C-2.49202991 7.6822542 -1.80317221 3.96697886 0 0 Z " fill="#2F2F2F" transform="translate(84,172)"/>
<path d="M0 0 C2 2 2 2 2.125 5.625 C2.08375 6.73875 2.0425 7.8525 2 9 C0.68 9 -0.64 9 -2 9 C-2 6.69 -2 4.38 -2 2 C-1.34 2 -0.68 2 0 2 C0 1.34 0 0.68 0 0 Z " fill="#222222" transform="translate(130,141)"/>
<path d="M0 0 C0.66 0 1.32 0 2 0 C3.125 4.75 3.125 4.75 2 7 C0.68 7 -0.64 7 -2 7 C-2.33 5.02 -2.66 3.04 -3 1 C-2.01 1.495 -2.01 1.495 -1 2 C-0.67 1.34 -0.34 0.68 0 0 Z " fill="#2C2A28" transform="translate(123,87)"/>
<path d="M0 0 C0.99 0.66 1.98 1.32 3 2 C2.360625 2.309375 1.72125 2.61875 1.0625 2.9375 C-2.09768575 6.09768575 -1.81900793 9.68333908 -2 14 C-2.33 14 -2.66 14 -3 14 C-3 10.7 -3 7.4 -3 4 C-3.66 3.67 -4.32 3.34 -5 3 C-3.35 2.01 -1.7 1.02 0 0 Z " fill="#545454" transform="translate(80,170)"/>
<path d="M0 0 C0.99 0.33 1.98 0.66 3 1 C3.33 3.64 3.66 6.28 4 9 C3.01 9 2.02 9 1 9 C0.63877119 7.68942607 0.28619689 6.37646376 -0.0625 5.0625 C-0.35833984 3.96615234 -0.35833984 3.96615234 -0.66015625 2.84765625 C-0.77230469 2.23792969 -0.88445312 1.62820312 -1 1 C-0.67 0.67 -0.34 0.34 0 0 Z " fill="#343434" transform="translate(157,162)"/>
<path d="M0 0 C1.98 0 3.96 0 6 0 C3.3006312 3.71163209 -0.7000414 4.29847125 -5 5 C-6.32 5 -7.64 5 -9 5 C-9 4.34 -9 3.68 -9 3 C-8.21625 2.855625 -7.4325 2.71125 -6.625 2.5625 C-4.03578982 2.12201075 -4.03578982 2.12201075 -2 1 C-1.34 1.33 -0.68 1.66 0 2 C0 1.34 0 0.68 0 0 Z " fill="#D6CA26" transform="translate(127,124)"/>
<path d="M0 0 C1.0541518 3.16245541 1.31275672 5.86948218 1.5625 9.1875 C1.64628906 10.27417969 1.73007813 11.36085938 1.81640625 12.48046875 C1.87699219 13.31191406 1.93757813 14.14335938 2 15 C1.34 15 0.68 15 0 15 C-0.33 14.01 -0.66 13.02 -1 12 C-1.66 12.66 -2.32 13.32 -3 14 C-2.28547412 9.23649415 -1.20465156 4.65798604 0 0 Z " fill="#ABA553" transform="translate(114,80)"/>
<path d="M0 0 C0.99 0.99 1.98 1.98 3 3 C-1.625 7 -1.625 7 -5 7 C-3.70700306 4.11562221 -2.34058637 2.12780579 0 0 Z " fill="#4F4F4F" transform="translate(56,152)"/>
<path d="M0 0 C0.99 0.495 0.99 0.495 2 1 C2.4140625 3.06640625 2.4140625 3.06640625 2.625 5.5625 C2.69976562 6.38878906 2.77453125 7.21507812 2.8515625 8.06640625 C2.92503906 9.02353516 2.92503906 9.02353516 3 10 C2.01 10 1.02 10 0 10 C0 6.7 0 3.4 0 0 Z " fill="#282828" transform="translate(122,180)"/>
<path d="M0 0 C0.66 0.33 1.32 0.66 2 1 C2 4.63 2 8.26 2 12 C1.34 11.67 0.68 11.34 0 11 C0 8.36 0 5.72 0 3 C-0.66 2.67 -1.32 2.34 -2 2 C-1.34 1.34 -0.68 0.68 0 0 Z " fill="#F3E832" transform="translate(101,107)"/>
<path d="M0 0 C0.99 0.33 1.98 0.66 3 1 C2.25 8.75 2.25 8.75 0 11 C0 7.37 0 3.74 0 0 Z " fill="#322F0D" transform="translate(103,108)"/>
<path d="M0 0 C0.99 0.66 1.98 1.32 3 2 C2.01 3.98 1.02 5.96 0 8 C-0.99 8 -1.98 8 -3 8 C-2.45276317 4.62537285 -1.9451 2.91765 0 0 Z " fill="#323232" transform="translate(74,167)"/>
<path d="M0 0 C2.875 0.1875 2.875 0.1875 6 1 C7.375 3.5625 7.375 3.5625 8 6 C7.01 6 6.02 6 5 6 C4.67 5.34 4.34 4.68 4 4 C3.01 3.34 2.02 2.68 1 2 C0.67 1.34 0.34 0.68 0 0 Z " fill="#373737" transform="translate(64,162)"/>
<path d="M0 0 C0.66 0.99 1.32 1.98 2 3 C4.30144109 4.07136051 6.6340213 5.07989717 9 6 C5.33572029 7.35714063 3.49363912 6.52286834 0 5 C-0.99 5 -1.98 5 -3 5 C-2.01 3.35 -1.02 1.7 0 0 Z " fill="#A19410" transform="translate(101,103)"/>
<path d="M0 0 C-0.62648438 0.19335938 -1.25296875 0.38671875 -1.8984375 0.5859375 C-2.71570313 0.84632812 -3.53296875 1.10671875 -4.375 1.375 C-5.59316406 1.75785156 -5.59316406 1.75785156 -6.8359375 2.1484375 C-9.16459185 2.89854283 -9.16459185 2.89854283 -11 5 C-13.125 4.625 -13.125 4.625 -15 4 C-5.69800321 -1.54542116 -5.69800321 -1.54542116 0 0 Z " fill="#A19B2A" transform="translate(107,55)"/>
<path d="M0 0 C1.98362069 2.91708924 1.9876191 4.12380904 1.625 7.75 C1.41875 8.8225 1.2125 9.895 1 11 C-0.98 11.33 -2.96 11.66 -5 12 C-4.360625 11.319375 -3.72125 10.63875 -3.0625 9.9375 C-0.6741507 6.53591161 -0.32122847 4.09566299 0 0 Z " fill="#B6B6B6" transform="translate(56,72)"/>
<path d="M0 0 C0.99 0.66 1.98 1.32 3 2 C1.35 2.33 -0.3 2.66 -2 3 C-2.68707555 5.49064888 -3 7.37886292 -3 10 C-3.66 9.67 -4.32 9.34 -5 9 C-4.75 5.625 -4.75 5.625 -4 2 C-1.9375 0.5625 -1.9375 0.5625 0 0 Z " fill="#6A6A6A" transform="translate(92,151)"/>
<path d="M0 0 C0.66 0.66 1.32 1.32 2 2 C0.02 3.32 -1.96 4.64 -4 6 C-4.66 5.34 -5.32 4.68 -6 4 C-4.02 2.68 -2.04 1.36 0 0 Z " fill="#252525" transform="translate(49,152)"/>
<path d="M0 0 C0.66 0 1.32 0 2 0 C1.67 1.32 1.34 2.64 1 4 C-1.31 4.33 -3.62 4.66 -6 5 C-6 4.01 -6 3.02 -6 2 C-4.35 2 -2.7 2 -1 2 C-0.67 1.34 -0.34 0.68 0 0 Z " fill="#020202" transform="translate(184,149)"/>
<path d="M0 0 C-1.0975223 2.99324263 -1.67682892 3.84610901 -4.625 5.25 C-5.40875 5.4975 -6.1925 5.745 -7 6 C-5.52522876 2.59668175 -4.14385429 0 0 0 Z " fill="#1A1A1A" transform="translate(45,144)"/>
<path d="M0 0 C1.125 2.0625 1.125 2.0625 2 4 C-1.20395416 4 -3.09399739 3.25664978 -6 2 C-6 1.34 -6 0.68 -6 0 C-2.25 -1.125 -2.25 -1.125 0 0 Z " fill="#606060" transform="translate(47,69)"/>
<path d="M0 0 C0.66 0 1.32 0 2 0 C2 2.97 2 5.94 2 9 C1.34 9 0.68 9 0 9 C-0.87890625 2.84765625 -0.87890625 2.84765625 -1 1 C-0.67 0.67 -0.34 0.34 0 0 Z " fill="#010101" transform="translate(75,174)"/>
<path d="M0 0 C0.33 0 0.66 0 1 0 C0.67 2.31 0.34 4.62 0 7 C-0.66 7 -1.32 7 -2 7 C-2.33 7.99 -2.66 8.98 -3 10 C-3 7.69 -3 5.38 -3 3 C-2.34 3 -1.68 3 -1 3 C-0.67 2.01 -0.34 1.02 0 0 Z " fill="#0F100D" transform="translate(103,138)"/>
<path d="M0 0 C0.99 0.33 1.98 0.66 3 1 C2.67 3.31 2.34 5.62 2 8 C1.01 7.34 0.02 6.68 -1 6 C-0.67 4.02 -0.34 2.04 0 0 Z " fill="#15140E" transform="translate(103,129)"/>
<path d="M0 0 C0.66 0.33 1.32 0.66 2 1 C1.34 2.32 0.68 3.64 0 5 C-0.99 5 -1.98 5 -3 5 C-3 5.66 -3 6.32 -3 7 C-3.99 7 -4.98 7 -6 7 C-6 6.34 -6 5.68 -6 5 C-4.04072937 3.2856382 -2.04119788 1.61594832 0 0 Z " fill="#B4AA2E" transform="translate(90,60)"/>
<path d="M0 0 C0.99 0 1.98 0 3 0 C3.1875 2.375 3.1875 2.375 3 5 C2.01 5.66 1.02 6.32 0 7 C0 4.69 0 2.38 0 0 Z " fill="#D1C616" transform="translate(138,113)"/>
<path d="M0 0 C-0.33 0.99 -0.66 1.98 -1 3 C-5.29 3 -9.58 3 -14 3 C-14 2.67 -14 2.34 -14 2 C-12.04200486 1.66468585 -10.08359226 1.33180857 -8.125 1 C-6.48917969 0.7215625 -6.48917969 0.7215625 -4.8203125 0.4375 C-2 0 -2 0 0 0 Z " fill="#3B3705" transform="translate(123,109)"/>
<path d="M0 0 C1.8125 1.4375 1.8125 1.4375 3 3 C0.6875 3.6875 0.6875 3.6875 -2 4 C-3.8125 2.5625 -3.8125 2.5625 -5 1 C-2.6875 0.3125 -2.6875 0.3125 0 0 Z " fill="#2B2B2B" transform="translate(62,90)"/>
<path d="M0 0 C1.125 3.75 1.125 3.75 0 6 C-0.99 6 -1.98 6 -3 6 C-3.33 6.66 -3.66 7.32 -4 8 C-3.40072174 4.64404172 -2.15377564 2.62198774 0 0 Z " fill="#B8AF34" transform="translate(83,67)"/>
<path d="M0 0 C-0.33 0.99 -0.66 1.98 -1 3 C-3.31 2.67 -5.62 2.34 -8 2 C-4.91190305 0.23537317 -3.76687864 0 0 0 Z " fill="#2B2B2B" transform="translate(137,174)"/>
<path d="M0 0 C0.66 0 1.32 0 2 0 C2.33 2.31 2.66 4.62 3 7 C1.68 6.34 0.36 5.68 -1 5 C-0.67 3.35 -0.34 1.7 0 0 Z " fill="#6D6D6D" transform="translate(104,149)"/>
<path d="M0 0 C-1.75 2.0625 -1.75 2.0625 -4 4 C-6.25 3.75 -6.25 3.75 -8 3 C-8 2.34 -8 1.68 -8 1 C-5.29120665 -0.35439668 -2.99066732 -0.06501451 0 0 Z " fill="#363532" transform="translate(114,115)"/>
<path d="" fill="#FFFFFF" transform="translate(0,0)"/>
<path d="" fill="#FFFFFF" transform="translate(0,0)"/>
<path d="" fill="#FFFFFF" transform="translate(0,0)"/>
<path d="" fill="#FFFFFF" transform="translate(0,0)"/>
<path d="" fill="#FFFFFF" transform="translate(0,0)"/>
<path d="" fill="#FFFFFF" transform="translate(0,0)"/>
<path d="" fill="#FFFFFF" transform="translate(0,0)"/>
<path d="" fill="#FFFFFF" transform="translate(0,0)"/>
<path d="" fill="#FFFFFF" transform="translate(0,0)"/>
<path d="" fill="#FFFFFF" transform="translate(0,0)"/>
<path d="" fill="#FFFFFF" transform="translate(0,0)"/>
<path d="" fill="#FFFFFF" transform="translate(0,0)"/>
<path d="" fill="#FFFFFF" transform="translate(0,0)"/>
<path d="" fill="#FFFFFF" transform="translate(0,0)"/>
<path d="" fill="#FFFFFF" transform="translate(0,0)"/>
<path d="" fill="#FFFFFF" transform="translate(0,0)"/>
<path d="" fill="#FFFFFF" transform="translate(0,0)"/>
<path d="" fill="#FFFFFF" transform="translate(0,0)"/>
<path d="" fill="#FFFFFF" transform="translate(0,0)"/>
<path d="" fill="#FFFFFF" transform="translate(0,0)"/>
<path d="" fill="#FFFFFF" transform="translate(0,0)"/>
<path d="" fill="#FFFFFF" transform="translate(0,0)"/>
<path d="" fill="#FFFF00" transform="translate(0,0)"/>
<path d="" fill="#FFFFFF" transform="translate(0,0)"/>
<path d="" fill="#FFFFFF" transform="translate(0,0)"/>
<path d="" fill="#FFFFFF" transform="translate(0,0)"/>
<path d="" fill="#FFFFFF" transform="translate(0,0)"/>
<path d="" fill="#FFFFFF" transform="translate(0,0)"/>
<path d="" fill="#FFFFFF" transform="translate(0,0)"/>
<path d="" fill="#FFFFFF" transform="translate(0,0)"/>
<path d="" fill="#FFFFFF" transform="translate(0,0)"/>
<path d="" fill="#FFFFFF" transform="translate(0,0)"/>
<path d="" fill="#FFFFFF" transform="translate(0,0)"/>
<path d="" fill="#FFFFFF" transform="translate(0,0)"/>
<path d="" fill="#FFFFFF" transform="translate(0,0)"/>
<path d="" fill="#FFFFFF" transform="translate(0,0)"/>
<path d="" fill="#FFFFFF" transform="translate(0,0)"/>
<path d="" fill="#FFFFFF" transform="translate(0,0)"/>
<path d="" fill="#FFFFFF" transform="translate(0,0)"/>
<path d="" fill="#FFFFFF" transform="translate(0,0)"/>
<path d="" fill="#FFFFFF" transform="translate(0,0)"/>
<path d="" fill="#FFFFFF" transform="translate(0,0)"/>
<path d="" fill="#FFFFFF" transform="translate(0,0)"/>
<path d="" fill="#FFFFFF" transform="translate(0,0)"/>
<path d="" fill="#FFFFFF" transform="translate(0,0)"/>
<path d="" fill="#FFFFFF" transform="translate(0,0)"/>
<path d="" fill="#FFFFFF" transform="translate(0,0)"/>
<path d="" fill="#FFFFFF" transform="translate(0,0)"/>
<path d="" fill="#FFFFFF" transform="translate(0,0)"/>
<path d="" fill="#FFFFFF" transform="translate(0,0)"/>
<path d="" fill="#FFFFFF" transform="translate(0,0)"/>
<path d="" fill="#FFFFFF" transform="translate(0,0)"/>
<path d="" fill="#FFFFFF" transform="translate(0,0)"/>
<path d="" fill="#FFFFFF" transform="translate(0,0)"/>
<path d="" fill="#FFFFFF" transform="translate(0,0)"/>
<path d="" fill="#FFFFFF" transform="translate(0,0)"/>
<path d="" fill="#FFFFFF" transform="translate(0,0)"/>
<path d="" fill="#FFFFFF" transform="translate(0,0)"/>
<path d="" fill="#FFFFFF" transform="translate(0,0)"/>
<path d="" fill="#FFFFFF" transform="translate(0,0)"/>
<path d="" fill="#FFFFFF" transform="translate(0,0)"/>
<path d="" fill="#FFFFFF" transform="translate(0,0)"/>
<path d="" fill="#FFFFFF" transform="translate(0,0)"/>
<path d="" fill="#FFFFFF" transform="translate(0,0)"/>
<path d="" fill="#FFFFFF" transform="translate(0,0)"/>
<path d="" fill="#FFFFFF" transform="translate(0,0)"/>
<path d="" fill="#FFFFFF" transform="translate(0,0)"/>
<path d="" fill="#FFFFFF" transform="translate(0,0)"/>
<path d="" fill="#FFFFFF" transform="translate(0,0)"/>
</svg>
